<?xml version="1.0" encoding="UTF-8" standalone="no"?>
<!DOCTYPE svg PUBLIC "-//W3C//DTD SVG 1.1//EN"
 "http://www.w3.org/Graphics/SVG/1.1/DTD/svg11.dtd">
<!-- Generated by graphviz version 7.1.0 (20230121.1956)
 -->
<!-- Title: classes Pages: 1 -->
<svg width="755pt" height="334pt"
 viewBox="0.00 0.00 755.00 334.00" xmlns="http://www.w3.org/2000/svg" xmlns:xlink="http://www.w3.org/1999/xlink">
<g id="graph0" class="graph" transform="scale(1 1) rotate(0) translate(4 330)">
<title>classes</title>
<polygon fill="white" stroke="none" points="-4,4 -4,-330 751,-330 751,4 -4,4"/>
<!-- corallium.log._LogSingleton.Config -->
<g id="node1" class="node">
<title>corallium.log._LogSingleton.Config</title>
<polygon fill="none" stroke="black" points="0,-60.5 0,-129.5 183,-129.5 183,-60.5 0,-60.5"/>
<text text-anchor="start" x="72.5" y="-114.3" font-family="Times,serif" font-size="14.00">Config</text>
<polyline fill="none" stroke="black" points="0,-106.5 183,-106.5"/>
<text text-anchor="start" x="8" y="-91.3" font-family="Times,serif" font-size="14.00">arbitrary_types_allowed : bool</text>
<polyline fill="none" stroke="black" points="0,-83.5 183,-83.5"/>
<text text-anchor="start" x="89.5" y="-68.3" font-family="Times,serif" font-size="14.00"> </text>
</g>
<!-- corallium.pretty_process._DelegatedTask -->
<g id="node2" class="node">
<title>corallium.pretty_process._DelegatedTask</title>
<polygon fill="none" stroke="black" points="201.5,-60.5 201.5,-129.5 305.5,-129.5 305.5,-60.5 201.5,-60.5"/>
<text text-anchor="start" x="209.5" y="-114.3" font-family="Times,serif" font-size="14.00">_DelegatedTask</text>
<polyline fill="none" stroke="black" points="201.5,-106.5 305.5,-106.5"/>
<polyline fill="none" stroke="black" points="201.5,-83.5 305.5,-83.5"/>
<text text-anchor="start" x="251.5" y="-68.3" font-family="Times,serif" font-size="14.00"> </text>
</g>
<!-- corallium.log._LogCallable -->
<g id="node3" class="node">
<title>corallium.log._LogCallable</title>
<polygon fill="none" stroke="black" points="323.5,-60.5 323.5,-129.5 413.5,-129.5 413.5,-60.5 323.5,-60.5"/>
<text text-anchor="start" x="331.5" y="-114.3" font-family="Times,serif" font-size="14.00">_LogCallable</text>
<polyline fill="none" stroke="black" points="323.5,-106.5 413.5,-106.5"/>
<polyline fill="none" stroke="black" points="323.5,-83.5 413.5,-83.5"/>
<text text-anchor="start" x="366.5" y="-68.3" font-family="Times,serif" font-size="14.00"> </text>
</g>
<!-- corallium.log._LogSingleton -->
<g id="node4" class="node">
<title>corallium.log._LogSingleton</title>
<polygon fill="none" stroke="black" points="320,-241.5 320,-325.5 417,-325.5 417,-241.5 320,-241.5"/>
<text text-anchor="start" x="328" y="-310.3" font-family="Times,serif" font-size="14.00">_LogSingleton</text>
<polyline fill="none" stroke="black" points="320,-302.5 417,-302.5"/>
<text text-anchor="start" x="359.5" y="-287.3" font-family="Times,serif" font-size="14.00">log</text>
<text text-anchor="start" x="359.5" y="-272.3" font-family="Times,serif" font-size="14.00">log</text>
<polyline fill="none" stroke="black" points="320,-264.5 417,-264.5"/>
<text text-anchor="start" x="366.5" y="-249.3" font-family="Times,serif" font-size="14.00"> </text>
</g>
<!-- corallium.log._LogCallable&#45;&gt;corallium.log._LogSingleton -->
<g id="edge1" class="edge">
<title>corallium.log._LogCallable&#45;&gt;corallium.log._LogSingleton</title>
<path fill="none" stroke="black" d="M368.5,-129.34C368.5,-156.97 368.5,-196.76 368.5,-228.86"/>
<polygon fill="black" stroke="black" points="368.5,-228.74 372.5,-234.74 368.5,-240.74 364.5,-234.74 368.5,-228.74"/>
<text text-anchor="middle" x="377.5" y="-211.8" font-family="Times,serif" font-size="14.00" fill="green">log</text>
</g>
<!-- corallium.log._Logger -->
<g id="node5" class="node">
<title>corallium.log._Logger</title>
<polygon fill="none" stroke="black" points="431.5,-15.5 431.5,-174.5 621.5,-174.5 621.5,-15.5 431.5,-15.5"/>
<text text-anchor="start" x="503.5" y="-159.3" font-family="Times,serif" font-size="14.00">_Logger</text>
<polyline fill="none" stroke="black" points="431.5,-151.5 621.5,-151.5"/>
<polyline fill="none" stroke="black" points="431.5,-128.5 621.5,-128.5"/>
<text text-anchor="start" x="439.5" y="-113.3" font-family="Times,serif" font-size="14.00">debug(message: str): None</text>
<text text-anchor="start" x="439.5" y="-98.3" font-family="Times,serif" font-size="14.00">error(message: str): None</text>
<text text-anchor="start" x="439.5" y="-83.3" font-family="Times,serif" font-size="14.00">exception(message: str): None</text>
<text text-anchor="start" x="439.5" y="-68.3" font-family="Times,serif" font-size="14.00">info(message: str): None</text>
<text text-anchor="start" x="439.5" y="-53.3" font-family="Times,serif" font-size="14.00">text(message: str): None</text>
<text text-anchor="start" x="439.5" y="-38.3" font-family="Times,serif" font-size="14.00">text_debug(message: str): None</text>
<text text-anchor="start" x="439.5" y="-23.3" font-family="Times,serif" font-size="14.00">warning(message: str): None</text>
</g>
<!-- corallium.log._Styles -->
<g id="node6" class="node">
<title>corallium.log._Styles</title>
<polygon fill="none" stroke="black" points="640,-0.5 640,-189.5 747,-189.5 747,-0.5 640,-0.5"/>
<text text-anchor="start" x="673.5" y="-174.3" font-family="Times,serif" font-size="14.00">_Styles</text>
<polyline fill="none" stroke="black" points="640,-166.5 747,-166.5"/>
<text text-anchor="start" x="648" y="-151.3" font-family="Times,serif" font-size="14.00">key : str</text>
<text text-anchor="start" x="648" y="-136.3" font-family="Times,serif" font-size="14.00">level_debug : str</text>
<text text-anchor="start" x="648" y="-121.3" font-family="Times,serif" font-size="14.00">level_error : str</text>
<text text-anchor="start" x="648" y="-106.3" font-family="Times,serif" font-size="14.00">level_info : str</text>
<text text-anchor="start" x="648" y="-91.3" font-family="Times,serif" font-size="14.00">level_lookup</text>
<text text-anchor="start" x="648" y="-76.3" font-family="Times,serif" font-size="14.00">level_warn : str</text>
<text text-anchor="start" x="648" y="-61.3" font-family="Times,serif" font-size="14.00">message : str</text>
<text text-anchor="start" x="648" y="-46.3" font-family="Times,serif" font-size="14.00">timestamp : str</text>
<text text-anchor="start" x="648" y="-31.3" font-family="Times,serif" font-size="14.00">value : str</text>
<polyline fill="none" stroke="black" points="640,-23.5 747,-23.5"/>
<text text-anchor="start" x="691.5" y="-8.3" font-family="Times,serif" font-size="14.00"> </text>
</g>
</g>
</svg>
