<?xml version="1.0" encoding="UTF-8" standalone="no"?>
<!DOCTYPE svg PUBLIC "-//W3C//DTD SVG 1.1//EN"
 "http://www.w3.org/Graphics/SVG/1.1/DTD/svg11.dtd">
<!-- Generated by graphviz version 11.0.0 (20240428.1522)
 -->
<!-- Title: classes Pages: 1 -->
<svg width="982pt" height="165pt"
 viewBox="0.00 0.00 982.12 165.00" xmlns="http://www.w3.org/2000/svg" xmlns:xlink="http://www.w3.org/1999/xlink">
<g id="graph0" class="graph" transform="scale(1 1) rotate(0) translate(4 161)">
<title>classes</title>
<polygon fill="white" stroke="none" points="-4,4 -4,-161 978.12,-161 978.12,4 -4,4"/>
<!-- corallium.loggers.styles.Colors -->
<g id="node1" class="node">
<title>corallium.loggers.styles.Colors</title>
<polygon fill="none" stroke="black" points="0,-8.75 0,-148.25 117.25,-148.25 117.25,-8.75 0,-8.75"/>
<text text-anchor="start" x="40.62" y="-130.95" font-family="Times,serif" font-size="14.00">Colors</text>
<polyline fill="none" stroke="black" points="0,-123.75 117.25,-123.75"/>
<text text-anchor="start" x="8" y="-106.45" font-family="Times,serif" font-size="14.00">level_debug : str</text>
<text text-anchor="start" x="8" y="-89.95" font-family="Times,serif" font-size="14.00">level_error : str</text>
<text text-anchor="start" x="8" y="-73.45" font-family="Times,serif" font-size="14.00">level_fallback : str</text>
<text text-anchor="start" x="8" y="-56.95" font-family="Times,serif" font-size="14.00">level_info : str</text>
<text text-anchor="start" x="8" y="-40.45" font-family="Times,serif" font-size="14.00">level_warn : str</text>
<polyline fill="none" stroke="black" points="0,-33.25 117.25,-33.25"/>
<text text-anchor="start" x="56.75" y="-15.95" font-family="Times,serif" font-size="14.00"> </text>
</g>
<!-- corallium.log.LogCallable -->
<g id="node2" class="node">
<title>corallium.log.LogCallable</title>
<polygon fill="none" stroke="black" points="135.25,-54 135.25,-103 218,-103 218,-54 135.25,-54"/>
<text text-anchor="start" x="143.25" y="-85.7" font-family="Times,serif" font-size="14.00">LogCallable</text>
<polyline fill="none" stroke="black" points="135.25,-78.5 218,-78.5"/>
<polyline fill="none" stroke="black" points="135.25,-78.5 218,-78.5"/>
<text text-anchor="start" x="174.75" y="-61.2" font-family="Times,serif" font-size="14.00"> </text>
</g>
<!-- corallium.loggers.styles.Styles -->
<g id="node3" class="node">
<title>corallium.loggers.styles.Styles</title>
<polygon fill="none" stroke="black" points="236.38,-0.5 236.38,-156.5 388.88,-156.5 388.88,-0.5 236.38,-0.5"/>
<text text-anchor="start" x="296.12" y="-139.2" font-family="Times,serif" font-size="14.00">Styles</text>
<polyline fill="none" stroke="black" points="236.38,-132 388.88,-132"/>
<text text-anchor="start" x="244.38" y="-114.7" font-family="Times,serif" font-size="14.00">colors : Optional[Colors]</text>
<text text-anchor="start" x="244.38" y="-98.2" font-family="Times,serif" font-size="14.00">key : str</text>
<text text-anchor="start" x="244.38" y="-81.7" font-family="Times,serif" font-size="14.00">message : str</text>
<text text-anchor="start" x="244.38" y="-65.2" font-family="Times,serif" font-size="14.00">timestamp : str</text>
<text text-anchor="start" x="244.38" y="-48.7" font-family="Times,serif" font-size="14.00">value : str</text>
<text text-anchor="start" x="244.38" y="-32.2" font-family="Times,serif" font-size="14.00">value_own_line : str</text>
<polyline fill="none" stroke="black" points="236.38,-25 388.88,-25"/>
<text text-anchor="start" x="273.25" y="-7.7" font-family="Times,serif" font-size="14.00">get_style(): str</text>
</g>
<!-- corallium.log._LogSingleton -->
<g id="node4" class="node">
<title>corallium.log._LogSingleton</title>
<polygon fill="none" stroke="black" points="406.88,-45.75 406.88,-111.25 562.38,-111.25 562.38,-45.75 406.88,-45.75"/>
<text text-anchor="start" x="444.5" y="-93.95" font-family="Times,serif" font-size="14.00">_LogSingleton</text>
<polyline fill="none" stroke="black" points="406.88,-86.75 562.38,-86.75"/>
<polyline fill="none" stroke="black" points="406.88,-86.75 562.38,-86.75"/>
<text text-anchor="start" x="414.88" y="-69.45" font-family="Times,serif" font-size="14.00">log(): None</text>
<text text-anchor="start" x="414.88" y="-52.95" font-family="Times,serif" font-size="14.00">set_logger(): LogCallable</text>
</g>
<!-- corallium.log._Logger -->
<g id="node5" class="node">
<title>corallium.log._Logger</title>
<polygon fill="none" stroke="black" points="580,-4.5 580,-152.5 769.25,-152.5 769.25,-4.5 580,-4.5"/>
<text text-anchor="start" x="651.75" y="-135.2" font-family="Times,serif" font-size="14.00">_Logger</text>
<polyline fill="none" stroke="black" points="580,-128 769.25,-128"/>
<polyline fill="none" stroke="black" points="580,-128 769.25,-128"/>
<text text-anchor="start" x="588" y="-110.7" font-family="Times,serif" font-size="14.00">debug(message: str): None</text>
<text text-anchor="start" x="588" y="-94.2" font-family="Times,serif" font-size="14.00">error(message: str): None</text>
<text text-anchor="start" x="588" y="-77.7" font-family="Times,serif" font-size="14.00">exception(message: str): None</text>
<text text-anchor="start" x="588" y="-61.2" font-family="Times,serif" font-size="14.00">info(message: str): None</text>
<text text-anchor="start" x="588" y="-44.7" font-family="Times,serif" font-size="14.00">text(message: str): None</text>
<text text-anchor="start" x="588" y="-28.2" font-family="Times,serif" font-size="14.00">text_debug(message: str): None</text>
<text text-anchor="start" x="588" y="-11.7" font-family="Times,serif" font-size="14.00">warning(message: str): None</text>
</g>
<!-- corallium._RuntimeTypeCheckingModes -->
<g id="node6" class="node">
<title>corallium._RuntimeTypeCheckingModes</title>
<polygon fill="none" stroke="black" points="787.12,-41.75 787.12,-115.25 974.12,-115.25 974.12,-41.75 787.12,-41.75"/>
<text text-anchor="start" x="795.12" y="-97.95" font-family="Times,serif" font-size="14.00">_RuntimeTypeCheckingModes</text>
<polyline fill="none" stroke="black" points="787.12,-90.75 974.12,-90.75"/>
<text text-anchor="start" x="865.62" y="-73.45" font-family="Times,serif" font-size="14.00">name</text>
<polyline fill="none" stroke="black" points="787.12,-66.25 974.12,-66.25"/>
<text text-anchor="start" x="810.12" y="-48.95" font-family="Times,serif" font-size="14.00">from_environment(): Self</text>
</g>
</g>
</svg>
