<?xml version="1.0" encoding="UTF-8" standalone="no"?>
<!DOCTYPE svg PUBLIC "-//W3C//DTD SVG 1.1//EN"
 "http://www.w3.org/Graphics/SVG/1.1/DTD/svg11.dtd">
<!-- Generated by graphviz version 2.43.0 (0)
 -->
<!-- Title: classes Pages: 1 -->
<svg width="1158pt" height="213pt"
 viewBox="0.00 0.00 1157.50 213.00" xmlns="http://www.w3.org/2000/svg" xmlns:xlink="http://www.w3.org/1999/xlink">
<g id="graph0" class="graph" transform="scale(1 1) rotate(0) translate(4 209)">
<title>classes</title>
<polygon fill="white" stroke="transparent" points="-4,4 -4,-209 1153.5,-209 1153.5,4 -4,4"/>
<!-- corallium.log.LogCallable -->
<g id="node1" class="node">
<title>corallium.log.LogCallable</title>
<polygon fill="none" stroke="black" points="0,-67.1 0,-137.9 101,-137.9 101,-67.1 0,-67.1"/>
<text text-anchor="start" x="8" y="-122.7" font-family="Times,serif" font-size="14.00">LogCallable</text>
<polyline fill="none" stroke="black" points="0,-114.9 101,-114.9 "/>
<polyline fill="none" stroke="black" points="0,-90.1 101,-90.1 "/>
<text text-anchor="start" x="48" y="-74.9" font-family="Times,serif" font-size="14.00"> </text>
</g>
<!-- corallium.loggers.styles.Styles -->
<g id="node2" class="node">
<title>corallium.loggers.styles.Styles</title>
<polygon fill="none" stroke="black" points="119.5,-0.5 119.5,-204.5 277.5,-204.5 277.5,-0.5 119.5,-0.5"/>
<text text-anchor="start" x="176" y="-189.3" font-family="Times,serif" font-size="14.00">Styles</text>
<polyline fill="none" stroke="black" points="119.5,-181.5 277.5,-181.5 "/>
<text text-anchor="start" x="127.5" y="-166.3" font-family="Times,serif" font-size="14.00">key : str</text>
<text text-anchor="start" x="127.5" y="-151.3" font-family="Times,serif" font-size="14.00">level_debug : str</text>
<text text-anchor="start" x="127.5" y="-136.3" font-family="Times,serif" font-size="14.00">level_error : str</text>
<text text-anchor="start" x="127.5" y="-121.3" font-family="Times,serif" font-size="14.00">level_fallback : str</text>
<text text-anchor="start" x="127.5" y="-106.3" font-family="Times,serif" font-size="14.00">level_info : str</text>
<text text-anchor="start" x="127.5" y="-91.3" font-family="Times,serif" font-size="14.00">level_warn : str</text>
<text text-anchor="start" x="127.5" y="-76.3" font-family="Times,serif" font-size="14.00">message : str</text>
<text text-anchor="start" x="127.5" y="-61.3" font-family="Times,serif" font-size="14.00">timestamp : str</text>
<text text-anchor="start" x="127.5" y="-46.3" font-family="Times,serif" font-size="14.00">value : str</text>
<text text-anchor="start" x="127.5" y="-31.3" font-family="Times,serif" font-size="14.00">value_own_line : str</text>
<polyline fill="none" stroke="black" points="119.5,-23.5 277.5,-23.5 "/>
<text text-anchor="start" x="146" y="-8.3" font-family="Times,serif" font-size="14.00">get_style(): str</text>
</g>
<!-- corallium.pretty_process._DelegatedTask -->
<g id="node3" class="node">
<title>corallium.pretty_process._DelegatedTask</title>
<polygon fill="none" stroke="black" points="295.5,-67.1 295.5,-137.9 423.5,-137.9 423.5,-67.1 295.5,-67.1"/>
<text text-anchor="start" x="303.5" y="-122.7" font-family="Times,serif" font-size="14.00">_DelegatedTask</text>
<polyline fill="none" stroke="black" points="295.5,-114.9 423.5,-114.9 "/>
<polyline fill="none" stroke="black" points="295.5,-90.1 423.5,-90.1 "/>
<text text-anchor="start" x="357" y="-74.9" font-family="Times,serif" font-size="14.00"> </text>
</g>
<!-- corallium.log._LogSingleton -->
<g id="node4" class="node">
<title>corallium.log._LogSingleton</title>
<polygon fill="none" stroke="black" points="441.5,-59.6 441.5,-145.4 635.5,-145.4 635.5,-59.6 441.5,-59.6"/>
<text text-anchor="start" x="487.5" y="-130.2" font-family="Times,serif" font-size="14.00">_LogSingleton</text>
<polyline fill="none" stroke="black" points="441.5,-122.4 635.5,-122.4 "/>
<polyline fill="none" stroke="black" points="441.5,-97.6 635.5,-97.6 "/>
<text text-anchor="start" x="449.5" y="-82.4" font-family="Times,serif" font-size="14.00">log(): None</text>
<text text-anchor="start" x="449.5" y="-67.4" font-family="Times,serif" font-size="14.00">set_logger(): LogCallable</text>
</g>
<!-- corallium.log._Logger -->
<g id="node5" class="node">
<title>corallium.log._Logger</title>
<polygon fill="none" stroke="black" points="654,-22.1 654,-182.9 899,-182.9 899,-22.1 654,-22.1"/>
<text text-anchor="start" x="747.5" y="-167.7" font-family="Times,serif" font-size="14.00">_Logger</text>
<polyline fill="none" stroke="black" points="654,-159.9 899,-159.9 "/>
<polyline fill="none" stroke="black" points="654,-135.1 899,-135.1 "/>
<text text-anchor="start" x="662" y="-119.9" font-family="Times,serif" font-size="14.00">debug(message: str): None</text>
<text text-anchor="start" x="662" y="-104.9" font-family="Times,serif" font-size="14.00">error(message: str): None</text>
<text text-anchor="start" x="662" y="-89.9" font-family="Times,serif" font-size="14.00">exception(message: str): None</text>
<text text-anchor="start" x="662" y="-74.9" font-family="Times,serif" font-size="14.00">info(message: str): None</text>
<text text-anchor="start" x="662" y="-59.9" font-family="Times,serif" font-size="14.00">text(message: str): None</text>
<text text-anchor="start" x="662" y="-44.9" font-family="Times,serif" font-size="14.00">text_debug(message: str): None</text>
<text text-anchor="start" x="662" y="-29.9" font-family="Times,serif" font-size="14.00">warning(message: str): None</text>
</g>
<!-- corallium._RuntimeTypeCheckingModes -->
<g id="node6" class="node">
<title>corallium._RuntimeTypeCheckingModes</title>
<polygon fill="none" stroke="black" points="917.5,-68 917.5,-137 1149.5,-137 1149.5,-68 917.5,-68"/>
<text text-anchor="start" x="925.5" y="-121.8" font-family="Times,serif" font-size="14.00">_RuntimeTypeCheckingModes</text>
<polyline fill="none" stroke="black" points="917.5,-114 1149.5,-114 "/>
<text text-anchor="start" x="1013.5" y="-98.8" font-family="Times,serif" font-size="14.00">name</text>
<polyline fill="none" stroke="black" points="917.5,-91 1149.5,-91 "/>
<text text-anchor="start" x="944" y="-75.8" font-family="Times,serif" font-size="14.00">from_environment(): Self</text>
</g>
</g>
</svg>
