<?xml version="1.0" encoding="UTF-8" standalone="no"?>
<!DOCTYPE svg PUBLIC "-//W3C//DTD SVG 1.1//EN"
 "http://www.w3.org/Graphics/SVG/1.1/DTD/svg11.dtd">
<!-- Generated by graphviz version 8.0.3 (20230416.2022)
 -->
<!-- Title: classes Pages: 1 -->
<svg width="742pt" height="213pt"
 viewBox="0.00 0.00 741.50 213.00" xmlns="http://www.w3.org/2000/svg" xmlns:xlink="http://www.w3.org/1999/xlink">
<g id="graph0" class="graph" transform="scale(1 1) rotate(0) translate(4 209)">
<title>classes</title>
<polygon fill="white" stroke="none" points="-4,4 -4,-209 737.5,-209 737.5,4 -4,4"/>
<!-- corallium.log.LogCallable -->
<g id="node1" class="node">
<title>corallium.log.LogCallable</title>
<polygon fill="none" stroke="black" points="0,-68 0,-137 83,-137 83,-68 0,-68"/>
<text text-anchor="start" x="8" y="-121.8" font-family="Times,serif" font-size="14.00">LogCallable</text>
<polyline fill="none" stroke="black" points="0,-114 83,-114"/>
<polyline fill="none" stroke="black" points="0,-91 83,-91"/>
<text text-anchor="start" x="39.5" y="-75.8" font-family="Times,serif" font-size="14.00"> </text>
</g>
<!-- corallium.loggers.styles.Styles -->
<g id="node2" class="node">
<title>corallium.loggers.styles.Styles</title>
<polygon fill="none" stroke="black" points="101.5,-0.5 101.5,-204.5 229.5,-204.5 229.5,-0.5 101.5,-0.5"/>
<text text-anchor="start" x="148.5" y="-189.3" font-family="Times,serif" font-size="14.00">Styles</text>
<polyline fill="none" stroke="black" points="101.5,-181.5 229.5,-181.5"/>
<text text-anchor="start" x="109.5" y="-166.3" font-family="Times,serif" font-size="14.00">key : str</text>
<text text-anchor="start" x="109.5" y="-151.3" font-family="Times,serif" font-size="14.00">level_debug : str</text>
<text text-anchor="start" x="109.5" y="-136.3" font-family="Times,serif" font-size="14.00">level_error : str</text>
<text text-anchor="start" x="109.5" y="-121.3" font-family="Times,serif" font-size="14.00">level_fallback : str</text>
<text text-anchor="start" x="109.5" y="-106.3" font-family="Times,serif" font-size="14.00">level_info : str</text>
<text text-anchor="start" x="109.5" y="-91.3" font-family="Times,serif" font-size="14.00">level_warn : str</text>
<text text-anchor="start" x="109.5" y="-76.3" font-family="Times,serif" font-size="14.00">message : str</text>
<text text-anchor="start" x="109.5" y="-61.3" font-family="Times,serif" font-size="14.00">timestamp : str</text>
<text text-anchor="start" x="109.5" y="-46.3" font-family="Times,serif" font-size="14.00">value : str</text>
<text text-anchor="start" x="109.5" y="-31.3" font-family="Times,serif" font-size="14.00">value_own_line : str</text>
<polyline fill="none" stroke="black" points="101.5,-23.5 229.5,-23.5"/>
<text text-anchor="start" x="126" y="-8.3" font-family="Times,serif" font-size="14.00">get_style(): str</text>
</g>
<!-- corallium.pretty_process._DelegatedTask -->
<g id="node3" class="node">
<title>corallium.pretty_process._DelegatedTask</title>
<polygon fill="none" stroke="black" points="247.5,-68 247.5,-137 351.5,-137 351.5,-68 247.5,-68"/>
<text text-anchor="start" x="255.5" y="-121.8" font-family="Times,serif" font-size="14.00">_DelegatedTask</text>
<polyline fill="none" stroke="black" points="247.5,-114 351.5,-114"/>
<polyline fill="none" stroke="black" points="247.5,-91 351.5,-91"/>
<text text-anchor="start" x="297.5" y="-75.8" font-family="Times,serif" font-size="14.00"> </text>
</g>
<!-- corallium.log._LogSingleton -->
<g id="node4" class="node">
<title>corallium.log._LogSingleton</title>
<polygon fill="none" stroke="black" points="369.5,-60.5 369.5,-144.5 525.5,-144.5 525.5,-60.5 369.5,-60.5"/>
<text text-anchor="start" x="407" y="-129.3" font-family="Times,serif" font-size="14.00">_LogSingleton</text>
<polyline fill="none" stroke="black" points="369.5,-121.5 525.5,-121.5"/>
<polyline fill="none" stroke="black" points="369.5,-98.5 525.5,-98.5"/>
<text text-anchor="start" x="377.5" y="-83.3" font-family="Times,serif" font-size="14.00">log(): None</text>
<text text-anchor="start" x="377.5" y="-68.3" font-family="Times,serif" font-size="14.00">set_logger(): LogCallable</text>
</g>
<!-- corallium.log._Logger -->
<g id="node5" class="node">
<title>corallium.log._Logger</title>
<polygon fill="none" stroke="black" points="543.5,-23 543.5,-182 733.5,-182 733.5,-23 543.5,-23"/>
<text text-anchor="start" x="615.5" y="-166.8" font-family="Times,serif" font-size="14.00">_Logger</text>
<polyline fill="none" stroke="black" points="543.5,-159 733.5,-159"/>
<polyline fill="none" stroke="black" points="543.5,-136 733.5,-136"/>
<text text-anchor="start" x="551.5" y="-120.8" font-family="Times,serif" font-size="14.00">debug(message: str): None</text>
<text text-anchor="start" x="551.5" y="-105.8" font-family="Times,serif" font-size="14.00">error(message: str): None</text>
<text text-anchor="start" x="551.5" y="-90.8" font-family="Times,serif" font-size="14.00">exception(message: str): None</text>
<text text-anchor="start" x="551.5" y="-75.8" font-family="Times,serif" font-size="14.00">info(message: str): None</text>
<text text-anchor="start" x="551.5" y="-60.8" font-family="Times,serif" font-size="14.00">text(message: str): None</text>
<text text-anchor="start" x="551.5" y="-45.8" font-family="Times,serif" font-size="14.00">text_debug(message: str): None</text>
<text text-anchor="start" x="551.5" y="-30.8" font-family="Times,serif" font-size="14.00">warning(message: str): None</text>
</g>
</g>
</svg>
