<?xml version="1.0" encoding="UTF-8" standalone="no"?>
<!DOCTYPE svg PUBLIC "-//W3C//DTD SVG 1.1//EN"
 "http://www.w3.org/Graphics/SVG/1.1/DTD/svg11.dtd">
<!-- Generated by graphviz version 2.43.0 (0)
 -->
<!-- Title: classes Pages: 1 -->
<svg width="1208pt" height="170pt"
 viewBox="0.00 0.00 1208.00 169.80" xmlns="http://www.w3.org/2000/svg" xmlns:xlink="http://www.w3.org/1999/xlink">
<g id="graph0" class="graph" transform="scale(1 1) rotate(0) translate(4 165.8)">
<title>classes</title>
<polygon fill="white" stroke="transparent" points="-4,4 -4,-165.8 1204,-165.8 1204,4 -4,4"/>
<!-- corallium.loggers.styles.Colors -->
<g id="node1" class="node">
<title>corallium.loggers.styles.Colors</title>
<polygon fill="none" stroke="black" points="0,-16.4 0,-145.4 146,-145.4 146,-16.4 0,-16.4"/>
<text text-anchor="start" x="50" y="-130.2" font-family="Times,serif" font-size="14.00">Colors</text>
<polyline fill="none" stroke="black" points="0,-122.4 146,-122.4 "/>
<text text-anchor="start" x="8" y="-107.2" font-family="Times,serif" font-size="14.00">level_debug : str</text>
<text text-anchor="start" x="8" y="-92.2" font-family="Times,serif" font-size="14.00">level_error : str</text>
<text text-anchor="start" x="8" y="-77.2" font-family="Times,serif" font-size="14.00">level_fallback : str</text>
<text text-anchor="start" x="8" y="-62.2" font-family="Times,serif" font-size="14.00">level_info : str</text>
<text text-anchor="start" x="8" y="-47.2" font-family="Times,serif" font-size="14.00">level_warn : str</text>
<polyline fill="none" stroke="black" points="0,-39.4 146,-39.4 "/>
<text text-anchor="start" x="70.5" y="-24.2" font-family="Times,serif" font-size="14.00"> </text>
</g>
<!-- corallium.log.LogCallable -->
<g id="node2" class="node">
<title>corallium.log.LogCallable</title>
<polygon fill="none" stroke="black" points="164.5,-45.5 164.5,-116.3 265.5,-116.3 265.5,-45.5 164.5,-45.5"/>
<text text-anchor="start" x="172.5" y="-101.1" font-family="Times,serif" font-size="14.00">LogCallable</text>
<polyline fill="none" stroke="black" points="164.5,-93.3 265.5,-93.3 "/>
<polyline fill="none" stroke="black" points="164.5,-68.5 265.5,-68.5 "/>
<text text-anchor="start" x="212.5" y="-53.3" font-family="Times,serif" font-size="14.00"> </text>
</g>
<!-- corallium.loggers.styles.Styles -->
<g id="node3" class="node">
<title>corallium.loggers.styles.Styles</title>
<polygon fill="none" stroke="black" points="284,-8.9 284,-152.9 474,-152.9 474,-8.9 284,-8.9"/>
<text text-anchor="start" x="356.5" y="-137.7" font-family="Times,serif" font-size="14.00">Styles</text>
<polyline fill="none" stroke="black" points="284,-129.9 474,-129.9 "/>
<text text-anchor="start" x="292" y="-114.7" font-family="Times,serif" font-size="14.00">colors : Optional[Colors]</text>
<text text-anchor="start" x="292" y="-99.7" font-family="Times,serif" font-size="14.00">key : str</text>
<text text-anchor="start" x="292" y="-84.7" font-family="Times,serif" font-size="14.00">message : str</text>
<text text-anchor="start" x="292" y="-69.7" font-family="Times,serif" font-size="14.00">timestamp : str</text>
<text text-anchor="start" x="292" y="-54.7" font-family="Times,serif" font-size="14.00">value : str</text>
<text text-anchor="start" x="292" y="-39.7" font-family="Times,serif" font-size="14.00">value_own_line : str</text>
<polyline fill="none" stroke="black" points="284,-31.9 474,-31.9 "/>
<text text-anchor="start" x="326.5" y="-16.7" font-family="Times,serif" font-size="14.00">get_style(): str</text>
</g>
<!-- corallium.log._LogSingleton -->
<g id="node4" class="node">
<title>corallium.log._LogSingleton</title>
<polygon fill="none" stroke="black" points="492,-38 492,-123.8 686,-123.8 686,-38 492,-38"/>
<text text-anchor="start" x="538" y="-108.6" font-family="Times,serif" font-size="14.00">_LogSingleton</text>
<polyline fill="none" stroke="black" points="492,-100.8 686,-100.8 "/>
<polyline fill="none" stroke="black" points="492,-76 686,-76 "/>
<text text-anchor="start" x="500" y="-60.8" font-family="Times,serif" font-size="14.00">log(): None</text>
<text text-anchor="start" x="500" y="-45.8" font-family="Times,serif" font-size="14.00">set_logger(): LogCallable</text>
</g>
<!-- corallium.log._Logger -->
<g id="node5" class="node">
<title>corallium.log._Logger</title>
<polygon fill="none" stroke="black" points="704.5,-0.5 704.5,-161.3 949.5,-161.3 949.5,-0.5 704.5,-0.5"/>
<text text-anchor="start" x="798" y="-146.1" font-family="Times,serif" font-size="14.00">_Logger</text>
<polyline fill="none" stroke="black" points="704.5,-138.3 949.5,-138.3 "/>
<polyline fill="none" stroke="black" points="704.5,-113.5 949.5,-113.5 "/>
<text text-anchor="start" x="712.5" y="-98.3" font-family="Times,serif" font-size="14.00">debug(message: str): None</text>
<text text-anchor="start" x="712.5" y="-83.3" font-family="Times,serif" font-size="14.00">error(message: str): None</text>
<text text-anchor="start" x="712.5" y="-68.3" font-family="Times,serif" font-size="14.00">exception(message: str): None</text>
<text text-anchor="start" x="712.5" y="-53.3" font-family="Times,serif" font-size="14.00">info(message: str): None</text>
<text text-anchor="start" x="712.5" y="-38.3" font-family="Times,serif" font-size="14.00">text(message: str): None</text>
<text text-anchor="start" x="712.5" y="-23.3" font-family="Times,serif" font-size="14.00">text_debug(message: str): None</text>
<text text-anchor="start" x="712.5" y="-8.3" font-family="Times,serif" font-size="14.00">warning(message: str): None</text>
</g>
<!-- corallium._RuntimeTypeCheckingModes -->
<g id="node6" class="node">
<title>corallium._RuntimeTypeCheckingModes</title>
<polygon fill="none" stroke="black" points="968,-46.4 968,-115.4 1200,-115.4 1200,-46.4 968,-46.4"/>
<text text-anchor="start" x="976" y="-100.2" font-family="Times,serif" font-size="14.00">_RuntimeTypeCheckingModes</text>
<polyline fill="none" stroke="black" points="968,-92.4 1200,-92.4 "/>
<text text-anchor="start" x="1064" y="-77.2" font-family="Times,serif" font-size="14.00">name</text>
<polyline fill="none" stroke="black" points="968,-69.4 1200,-69.4 "/>
<text text-anchor="start" x="994.5" y="-54.2" font-family="Times,serif" font-size="14.00">from_environment(): Self</text>
</g>
</g>
</svg>
