<?xml version="1.0" encoding="UTF-8" standalone="no"?>
<!DOCTYPE svg PUBLIC "-//W3C//DTD SVG 1.1//EN"
 "http://www.w3.org/Graphics/SVG/1.1/DTD/svg11.dtd">
<!-- Generated by graphviz version 2.43.0 (0)
 -->
<!-- Title: classes Pages: 1 -->
<svg width="908pt" height="198pt"
 viewBox="0.00 0.00 907.50 198.00" xmlns="http://www.w3.org/2000/svg" xmlns:xlink="http://www.w3.org/1999/xlink">
<g id="graph0" class="graph" transform="scale(1 1) rotate(0) translate(4 194)">
<title>classes</title>
<polygon fill="white" stroke="transparent" points="-4,4 -4,-194 903.5,-194 903.5,4 -4,4"/>
<!-- corallium.log.LogCallable -->
<g id="node1" class="node">
<title>corallium.log.LogCallable</title>
<polygon fill="none" stroke="black" points="0,-59.6 0,-130.4 101,-130.4 101,-59.6 0,-59.6"/>
<text text-anchor="start" x="8" y="-115.2" font-family="Times,serif" font-size="14.00">LogCallable</text>
<polyline fill="none" stroke="black" points="0,-107.4 101,-107.4 "/>
<polyline fill="none" stroke="black" points="0,-82.6 101,-82.6 "/>
<text text-anchor="start" x="48" y="-67.4" font-family="Times,serif" font-size="14.00"> </text>
</g>
<!-- corallium.pretty_process._DelegatedTask -->
<g id="node2" class="node">
<title>corallium.pretty_process._DelegatedTask</title>
<polygon fill="none" stroke="black" points="119.5,-59.6 119.5,-130.4 247.5,-130.4 247.5,-59.6 119.5,-59.6"/>
<text text-anchor="start" x="127.5" y="-115.2" font-family="Times,serif" font-size="14.00">_DelegatedTask</text>
<polyline fill="none" stroke="black" points="119.5,-107.4 247.5,-107.4 "/>
<polyline fill="none" stroke="black" points="119.5,-82.6 247.5,-82.6 "/>
<text text-anchor="start" x="181" y="-67.4" font-family="Times,serif" font-size="14.00"> </text>
</g>
<!-- corallium.log._LogSingleton -->
<g id="node3" class="node">
<title>corallium.log._LogSingleton</title>
<polygon fill="none" stroke="black" points="265.5,-52.1 265.5,-137.9 459.5,-137.9 459.5,-52.1 265.5,-52.1"/>
<text text-anchor="start" x="311.5" y="-122.7" font-family="Times,serif" font-size="14.00">_LogSingleton</text>
<polyline fill="none" stroke="black" points="265.5,-114.9 459.5,-114.9 "/>
<polyline fill="none" stroke="black" points="265.5,-90.1 459.5,-90.1 "/>
<text text-anchor="start" x="273.5" y="-74.9" font-family="Times,serif" font-size="14.00">log(): None</text>
<text text-anchor="start" x="273.5" y="-59.9" font-family="Times,serif" font-size="14.00">set_logger(): LogCallable</text>
</g>
<!-- corallium.log._Logger -->
<g id="node4" class="node">
<title>corallium.log._Logger</title>
<polygon fill="none" stroke="black" points="478,-14.6 478,-175.4 723,-175.4 723,-14.6 478,-14.6"/>
<text text-anchor="start" x="571.5" y="-160.2" font-family="Times,serif" font-size="14.00">_Logger</text>
<polyline fill="none" stroke="black" points="478,-152.4 723,-152.4 "/>
<polyline fill="none" stroke="black" points="478,-127.6 723,-127.6 "/>
<text text-anchor="start" x="486" y="-112.4" font-family="Times,serif" font-size="14.00">debug(message: str): None</text>
<text text-anchor="start" x="486" y="-97.4" font-family="Times,serif" font-size="14.00">error(message: str): None</text>
<text text-anchor="start" x="486" y="-82.4" font-family="Times,serif" font-size="14.00">exception(message: str): None</text>
<text text-anchor="start" x="486" y="-67.4" font-family="Times,serif" font-size="14.00">info(message: str): None</text>
<text text-anchor="start" x="486" y="-52.4" font-family="Times,serif" font-size="14.00">text(message: str): None</text>
<text text-anchor="start" x="486" y="-37.4" font-family="Times,serif" font-size="14.00">text_debug(message: str): None</text>
<text text-anchor="start" x="486" y="-22.4" font-family="Times,serif" font-size="14.00">warning(message: str): None</text>
</g>
<!-- corallium.loggers.styles._Styles -->
<g id="node5" class="node">
<title>corallium.loggers.styles._Styles</title>
<polygon fill="none" stroke="black" points="741.5,-0.5 741.5,-189.5 899.5,-189.5 899.5,-0.5 741.5,-0.5"/>
<text text-anchor="start" x="794.5" y="-174.3" font-family="Times,serif" font-size="14.00">_Styles</text>
<polyline fill="none" stroke="black" points="741.5,-166.5 899.5,-166.5 "/>
<text text-anchor="start" x="749.5" y="-151.3" font-family="Times,serif" font-size="14.00">key : str</text>
<text text-anchor="start" x="749.5" y="-136.3" font-family="Times,serif" font-size="14.00">level_debug : str</text>
<text text-anchor="start" x="749.5" y="-121.3" font-family="Times,serif" font-size="14.00">level_error : str</text>
<text text-anchor="start" x="749.5" y="-106.3" font-family="Times,serif" font-size="14.00">level_info : str</text>
<text text-anchor="start" x="749.5" y="-91.3" font-family="Times,serif" font-size="14.00">level_warn : str</text>
<text text-anchor="start" x="749.5" y="-76.3" font-family="Times,serif" font-size="14.00">message : str</text>
<text text-anchor="start" x="749.5" y="-61.3" font-family="Times,serif" font-size="14.00">timestamp : str</text>
<text text-anchor="start" x="749.5" y="-46.3" font-family="Times,serif" font-size="14.00">value : str</text>
<text text-anchor="start" x="749.5" y="-31.3" font-family="Times,serif" font-size="14.00">value_own_line : str</text>
<polyline fill="none" stroke="black" points="741.5,-23.5 899.5,-23.5 "/>
<text text-anchor="start" x="768" y="-8.3" font-family="Times,serif" font-size="14.00">get_style(): str</text>
</g>
</g>
</svg>
