<?xml version="1.0" encoding="UTF-8" standalone="no"?>
<!DOCTYPE svg PUBLIC "-//W3C//DTD SVG 1.1//EN"
 "http://www.w3.org/Graphics/SVG/1.1/DTD/svg11.dtd">
<!-- Generated by graphviz version 7.1.0 (20230121.1956)
 -->
<!-- Title: classes Pages: 1 -->
<svg width="742pt" height="198pt"
 viewBox="0.00 0.00 741.50 198.00" xmlns="http://www.w3.org/2000/svg" xmlns:xlink="http://www.w3.org/1999/xlink">
<g id="graph0" class="graph" transform="scale(1 1) rotate(0) translate(4 194)">
<title>classes</title>
<polygon fill="white" stroke="none" points="-4,4 -4,-194 737.5,-194 737.5,4 -4,4"/>
<!-- corallium.log.LogCallable -->
<g id="node1" class="node">
<title>corallium.log.LogCallable</title>
<polygon fill="none" stroke="black" points="0,-60.5 0,-129.5 83,-129.5 83,-60.5 0,-60.5"/>
<text text-anchor="start" x="8" y="-114.3" font-family="Times,serif" font-size="14.00">LogCallable</text>
<polyline fill="none" stroke="black" points="0,-106.5 83,-106.5"/>
<polyline fill="none" stroke="black" points="0,-83.5 83,-83.5"/>
<text text-anchor="start" x="39.5" y="-68.3" font-family="Times,serif" font-size="14.00"> </text>
</g>
<!-- corallium.pretty_process._DelegatedTask -->
<g id="node2" class="node">
<title>corallium.pretty_process._DelegatedTask</title>
<polygon fill="none" stroke="black" points="101.5,-60.5 101.5,-129.5 205.5,-129.5 205.5,-60.5 101.5,-60.5"/>
<text text-anchor="start" x="109.5" y="-114.3" font-family="Times,serif" font-size="14.00">_DelegatedTask</text>
<polyline fill="none" stroke="black" points="101.5,-106.5 205.5,-106.5"/>
<polyline fill="none" stroke="black" points="101.5,-83.5 205.5,-83.5"/>
<text text-anchor="start" x="151.5" y="-68.3" font-family="Times,serif" font-size="14.00"> </text>
</g>
<!-- corallium.log._LogSingleton -->
<g id="node3" class="node">
<title>corallium.log._LogSingleton</title>
<polygon fill="none" stroke="black" points="223.5,-53 223.5,-137 379.5,-137 379.5,-53 223.5,-53"/>
<text text-anchor="start" x="261" y="-121.8" font-family="Times,serif" font-size="14.00">_LogSingleton</text>
<polyline fill="none" stroke="black" points="223.5,-114 379.5,-114"/>
<polyline fill="none" stroke="black" points="223.5,-91 379.5,-91"/>
<text text-anchor="start" x="231.5" y="-75.8" font-family="Times,serif" font-size="14.00">log(): None</text>
<text text-anchor="start" x="231.5" y="-60.8" font-family="Times,serif" font-size="14.00">set_logger(): LogCallable</text>
</g>
<!-- corallium.log._Logger -->
<g id="node4" class="node">
<title>corallium.log._Logger</title>
<polygon fill="none" stroke="black" points="397.5,-15.5 397.5,-174.5 587.5,-174.5 587.5,-15.5 397.5,-15.5"/>
<text text-anchor="start" x="469.5" y="-159.3" font-family="Times,serif" font-size="14.00">_Logger</text>
<polyline fill="none" stroke="black" points="397.5,-151.5 587.5,-151.5"/>
<polyline fill="none" stroke="black" points="397.5,-128.5 587.5,-128.5"/>
<text text-anchor="start" x="405.5" y="-113.3" font-family="Times,serif" font-size="14.00">debug(message: str): None</text>
<text text-anchor="start" x="405.5" y="-98.3" font-family="Times,serif" font-size="14.00">error(message: str): None</text>
<text text-anchor="start" x="405.5" y="-83.3" font-family="Times,serif" font-size="14.00">exception(message: str): None</text>
<text text-anchor="start" x="405.5" y="-68.3" font-family="Times,serif" font-size="14.00">info(message: str): None</text>
<text text-anchor="start" x="405.5" y="-53.3" font-family="Times,serif" font-size="14.00">text(message: str): None</text>
<text text-anchor="start" x="405.5" y="-38.3" font-family="Times,serif" font-size="14.00">text_debug(message: str): None</text>
<text text-anchor="start" x="405.5" y="-23.3" font-family="Times,serif" font-size="14.00">warning(message: str): None</text>
</g>
<!-- corallium.loggers.styles._Styles -->
<g id="node5" class="node">
<title>corallium.loggers.styles._Styles</title>
<polygon fill="none" stroke="black" points="605.5,-0.5 605.5,-189.5 733.5,-189.5 733.5,-0.5 605.5,-0.5"/>
<text text-anchor="start" x="649.5" y="-174.3" font-family="Times,serif" font-size="14.00">_Styles</text>
<polyline fill="none" stroke="black" points="605.5,-166.5 733.5,-166.5"/>
<text text-anchor="start" x="613.5" y="-151.3" font-family="Times,serif" font-size="14.00">key : str</text>
<text text-anchor="start" x="613.5" y="-136.3" font-family="Times,serif" font-size="14.00">level_debug : str</text>
<text text-anchor="start" x="613.5" y="-121.3" font-family="Times,serif" font-size="14.00">level_error : str</text>
<text text-anchor="start" x="613.5" y="-106.3" font-family="Times,serif" font-size="14.00">level_info : str</text>
<text text-anchor="start" x="613.5" y="-91.3" font-family="Times,serif" font-size="14.00">level_warn : str</text>
<text text-anchor="start" x="613.5" y="-76.3" font-family="Times,serif" font-size="14.00">message : str</text>
<text text-anchor="start" x="613.5" y="-61.3" font-family="Times,serif" font-size="14.00">timestamp : str</text>
<text text-anchor="start" x="613.5" y="-46.3" font-family="Times,serif" font-size="14.00">value : str</text>
<text text-anchor="start" x="613.5" y="-31.3" font-family="Times,serif" font-size="14.00">value_own_line : str</text>
<polyline fill="none" stroke="black" points="605.5,-23.5 733.5,-23.5"/>
<text text-anchor="start" x="630" y="-8.3" font-family="Times,serif" font-size="14.00">get_style(): str</text>
</g>
</g>
</svg>
