<?xml version="1.0" encoding="UTF-8" standalone="no"?>
<!DOCTYPE svg PUBLIC "-//W3C//DTD SVG 1.1//EN"
 "http://www.w3.org/Graphics/SVG/1.1/DTD/svg11.dtd">
<!-- Generated by graphviz version 8.1.0 (20230707.0739)
 -->
<!-- Title: classes Pages: 1 -->
<svg width="943pt" height="231pt"
 viewBox="0.00 0.00 942.88 231.00" xmlns="http://www.w3.org/2000/svg" xmlns:xlink="http://www.w3.org/1999/xlink">
<g id="graph0" class="graph" transform="scale(1 1) rotate(0) translate(4 227)">
<title>classes</title>
<polygon fill="white" stroke="none" points="-4,4 -4,-227 938.88,-227 938.88,4 -4,4"/>
<!-- corallium.log.LogCallable -->
<g id="node1" class="node">
<title>corallium.log.LogCallable</title>
<polygon fill="none" stroke="black" points="0,-87 0,-136 82.75,-136 82.75,-87 0,-87"/>
<text text-anchor="start" x="8" y="-118.7" font-family="Times,serif" font-size="14.00">LogCallable</text>
<polyline fill="none" stroke="black" points="0,-111.5 82.75,-111.5"/>
<polyline fill="none" stroke="black" points="0,-111.5 82.75,-111.5"/>
<text text-anchor="start" x="39.5" y="-94.2" font-family="Times,serif" font-size="14.00"> </text>
</g>
<!-- corallium.loggers.styles.Styles -->
<g id="node2" class="node">
<title>corallium.loggers.styles.Styles</title>
<polygon fill="none" stroke="black" points="100.88,-0.5 100.88,-222.5 227.88,-222.5 227.88,-0.5 100.88,-0.5"/>
<text text-anchor="start" x="147.88" y="-205.2" font-family="Times,serif" font-size="14.00">Styles</text>
<polyline fill="none" stroke="black" points="100.88,-198 227.88,-198"/>
<text text-anchor="start" x="108.88" y="-180.7" font-family="Times,serif" font-size="14.00">key : str</text>
<text text-anchor="start" x="108.88" y="-164.2" font-family="Times,serif" font-size="14.00">level_debug : str</text>
<text text-anchor="start" x="108.88" y="-147.7" font-family="Times,serif" font-size="14.00">level_error : str</text>
<text text-anchor="start" x="108.88" y="-131.2" font-family="Times,serif" font-size="14.00">level_fallback : str</text>
<text text-anchor="start" x="108.88" y="-114.7" font-family="Times,serif" font-size="14.00">level_info : str</text>
<text text-anchor="start" x="108.88" y="-98.2" font-family="Times,serif" font-size="14.00">level_warn : str</text>
<text text-anchor="start" x="108.88" y="-81.7" font-family="Times,serif" font-size="14.00">message : str</text>
<text text-anchor="start" x="108.88" y="-65.2" font-family="Times,serif" font-size="14.00">timestamp : str</text>
<text text-anchor="start" x="108.88" y="-48.7" font-family="Times,serif" font-size="14.00">value : str</text>
<text text-anchor="start" x="108.88" y="-32.2" font-family="Times,serif" font-size="14.00">value_own_line : str</text>
<polyline fill="none" stroke="black" points="100.88,-25 227.88,-25"/>
<text text-anchor="start" x="125" y="-7.7" font-family="Times,serif" font-size="14.00">get_style(): str</text>
</g>
<!-- corallium.pretty_process._DelegatedTask -->
<g id="node3" class="node">
<title>corallium.pretty_process._DelegatedTask</title>
<polygon fill="none" stroke="black" points="245.5,-87 245.5,-136 349.25,-136 349.25,-87 245.5,-87"/>
<text text-anchor="start" x="253.5" y="-118.7" font-family="Times,serif" font-size="14.00">_DelegatedTask</text>
<polyline fill="none" stroke="black" points="245.5,-111.5 349.25,-111.5"/>
<polyline fill="none" stroke="black" points="245.5,-111.5 349.25,-111.5"/>
<text text-anchor="start" x="295.5" y="-94.2" font-family="Times,serif" font-size="14.00"> </text>
</g>
<!-- corallium.log._LogSingleton -->
<g id="node4" class="node">
<title>corallium.log._LogSingleton</title>
<polygon fill="none" stroke="black" points="367.62,-78.75 367.62,-144.25 523.12,-144.25 523.12,-78.75 367.62,-78.75"/>
<text text-anchor="start" x="405.25" y="-126.95" font-family="Times,serif" font-size="14.00">_LogSingleton</text>
<polyline fill="none" stroke="black" points="367.62,-119.75 523.12,-119.75"/>
<polyline fill="none" stroke="black" points="367.62,-119.75 523.12,-119.75"/>
<text text-anchor="start" x="375.62" y="-102.45" font-family="Times,serif" font-size="14.00">log(): None</text>
<text text-anchor="start" x="375.62" y="-85.95" font-family="Times,serif" font-size="14.00">set_logger(): LogCallable</text>
</g>
<!-- corallium.log._Logger -->
<g id="node5" class="node">
<title>corallium.log._Logger</title>
<polygon fill="none" stroke="black" points="540.75,-37.5 540.75,-185.5 730,-185.5 730,-37.5 540.75,-37.5"/>
<text text-anchor="start" x="612.5" y="-168.2" font-family="Times,serif" font-size="14.00">_Logger</text>
<polyline fill="none" stroke="black" points="540.75,-161 730,-161"/>
<polyline fill="none" stroke="black" points="540.75,-161 730,-161"/>
<text text-anchor="start" x="548.75" y="-143.7" font-family="Times,serif" font-size="14.00">debug(message: str): None</text>
<text text-anchor="start" x="548.75" y="-127.2" font-family="Times,serif" font-size="14.00">error(message: str): None</text>
<text text-anchor="start" x="548.75" y="-110.7" font-family="Times,serif" font-size="14.00">exception(message: str): None</text>
<text text-anchor="start" x="548.75" y="-94.2" font-family="Times,serif" font-size="14.00">info(message: str): None</text>
<text text-anchor="start" x="548.75" y="-77.7" font-family="Times,serif" font-size="14.00">text(message: str): None</text>
<text text-anchor="start" x="548.75" y="-61.2" font-family="Times,serif" font-size="14.00">text_debug(message: str): None</text>
<text text-anchor="start" x="548.75" y="-44.7" font-family="Times,serif" font-size="14.00">warning(message: str): None</text>
</g>
<!-- corallium._RuntimeTypeCheckingModes -->
<g id="node6" class="node">
<title>corallium._RuntimeTypeCheckingModes</title>
<polygon fill="none" stroke="black" points="747.88,-74.75 747.88,-148.25 934.88,-148.25 934.88,-74.75 747.88,-74.75"/>
<text text-anchor="start" x="755.88" y="-130.95" font-family="Times,serif" font-size="14.00">_RuntimeTypeCheckingModes</text>
<polyline fill="none" stroke="black" points="747.88,-123.75 934.88,-123.75"/>
<text text-anchor="start" x="826.38" y="-106.45" font-family="Times,serif" font-size="14.00">name</text>
<polyline fill="none" stroke="black" points="747.88,-99.25 934.88,-99.25"/>
<text text-anchor="start" x="770.88" y="-81.95" font-family="Times,serif" font-size="14.00">from_environment(): Self</text>
</g>
</g>
</svg>
