<?xml version="1.0" encoding="UTF-8" standalone="no"?>
<!DOCTYPE svg PUBLIC "-//W3C//DTD SVG 1.1//EN"
 "http://www.w3.org/Graphics/SVG/1.1/DTD/svg11.dtd">
<!-- Generated by graphviz version 8.1.0 (20230707.0739)
 -->
<!-- Title: packages Pages: 1 -->
<svg width="1077pt" height="260pt"
 viewBox="0.00 0.00 1077.25 260.00" xmlns="http://www.w3.org/2000/svg" xmlns:xlink="http://www.w3.org/1999/xlink">
<g id="graph0" class="graph" transform="scale(1 1) rotate(0) translate(4 256)">
<title>packages</title>
<polygon fill="white" stroke="none" points="-4,4 -4,-256 1073.25,-256 1073.25,4 -4,4"/>
<!-- corallium -->
<g id="node1" class="node">
<title>corallium</title>
<polygon fill="none" stroke="black" points="74,-36 5.5,-36 5.5,0 74,0 74,-36"/>
<text text-anchor="middle" x="39.75" y="-12.95" font-family="Times,serif" font-size="14.00">corallium</text>
</g>
<!-- corallium.file_helpers -->
<g id="node2" class="node">
<title>corallium.file_helpers</title>
<polygon fill="none" stroke="black" points="343.75,-36 207.75,-36 207.75,0 343.75,0 343.75,-36"/>
<text text-anchor="middle" x="275.75" y="-12.95" font-family="Times,serif" font-size="14.00">corallium.file_helpers</text>
</g>
<!-- corallium.log -->
<g id="node3" class="node">
<title>corallium.log</title>
<polygon fill="none" stroke="black" points="193.5,-108 104,-108 104,-72 193.5,-72 193.5,-108"/>
<text text-anchor="middle" x="148.75" y="-84.95" font-family="Times,serif" font-size="14.00">corallium.log</text>
</g>
<!-- corallium.file_helpers&#45;&gt;corallium.log -->
<g id="edge1" class="edge">
<title>corallium.file_helpers&#45;&gt;corallium.log</title>
<path fill="none" stroke="black" d="M244.03,-36.48C227.24,-45.74 206.44,-57.2 188.57,-67.05"/>
<polygon fill="black" stroke="black" points="180.07,-71.74 186.65,-62.97 184.44,-69.33 188.82,-66.91 188.82,-66.91 188.82,-66.91 184.44,-69.33 191,-70.85 180.07,-71.74 180.07,-71.74"/>
</g>
<!-- corallium.tomllib -->
<g id="node12" class="node">
<title>corallium.tomllib</title>
<polygon fill="none" stroke="black" points="331.75,-108 219.75,-108 219.75,-72 331.75,-72 331.75,-108"/>
<text text-anchor="middle" x="275.75" y="-84.95" font-family="Times,serif" font-size="14.00">corallium.tomllib</text>
</g>
<!-- corallium.file_helpers&#45;&gt;corallium.tomllib -->
<g id="edge2" class="edge">
<title>corallium.file_helpers&#45;&gt;corallium.tomllib</title>
<path fill="none" stroke="black" d="M275.75,-36.3C275.75,-44.1 275.75,-53.49 275.75,-62.17"/>
<polygon fill="black" stroke="black" points="275.75,-71.9 271.25,-61.9 275.75,-66.9 275.75,-61.9 275.75,-61.9 275.75,-61.9 275.75,-66.9 280.25,-61.9 275.75,-71.9 275.75,-71.9"/>
</g>
<!-- corallium.loggers.rich_printer -->
<g id="node6" class="node">
<title>corallium.loggers.rich_printer</title>
<polygon fill="none" stroke="black" points="179.5,-180 0,-180 0,-144 179.5,-144 179.5,-180"/>
<text text-anchor="middle" x="89.75" y="-156.95" font-family="Times,serif" font-size="14.00">corallium.loggers.rich_printer</text>
</g>
<!-- corallium.log&#45;&gt;corallium.loggers.rich_printer -->
<g id="edge3" class="edge">
<title>corallium.log&#45;&gt;corallium.loggers.rich_printer</title>
<path fill="none" stroke="black" d="M134.17,-108.3C127.02,-116.78 118.29,-127.14 110.47,-136.42"/>
<polygon fill="black" stroke="black" points="104.17,-143.9 107.17,-133.35 107.39,-140.07 110.61,-136.25 110.61,-136.25 110.61,-136.25 107.39,-140.07 114.05,-139.15 104.17,-143.9 104.17,-143.9"/>
</g>
<!-- corallium.loggers.styles -->
<g id="node9" class="node">
<title>corallium.loggers.styles</title>
<polygon fill="none" stroke="black" points="222,-252 75.5,-252 75.5,-216 222,-216 222,-252"/>
<text text-anchor="middle" x="148.75" y="-228.95" font-family="Times,serif" font-size="14.00">corallium.loggers.styles</text>
</g>
<!-- corallium.log&#45;&gt;corallium.loggers.styles -->
<g id="edge4" class="edge">
<title>corallium.log&#45;&gt;corallium.loggers.styles</title>
<path fill="none" stroke="black" d="M166.48,-108.4C174.99,-118 184.28,-130.66 188.75,-144 193.83,-159.17 193.83,-164.83 188.75,-180 185.36,-190.11 179.21,-199.82 172.72,-208.12"/>
<polygon fill="black" stroke="black" points="166.48,-215.6 169.43,-205.04 169.69,-211.76 172.89,-207.92 172.89,-207.92 172.89,-207.92 169.69,-211.76 176.34,-210.8 166.48,-215.6 166.48,-215.6"/>
</g>
<!-- corallium.loggers -->
<g id="node4" class="node">
<title>corallium.loggers</title>
<polygon fill="none" stroke="black" points="473.75,-36 361.75,-36 361.75,0 473.75,0 473.75,-36"/>
<text text-anchor="middle" x="417.75" y="-12.95" font-family="Times,serif" font-size="14.00">corallium.loggers</text>
</g>
<!-- corallium.loggers.plain_printer -->
<g id="node5" class="node">
<title>corallium.loggers.plain_printer</title>
<polygon fill="none" stroke="black" points="677.5,-36 492,-36 492,0 677.5,0 677.5,-36"/>
<text text-anchor="middle" x="584.75" y="-12.95" font-family="Times,serif" font-size="14.00">corallium.loggers.plain_printer</text>
</g>
<!-- corallium.loggers.rich_printer&#45;&gt;corallium.loggers.styles -->
<g id="edge5" class="edge">
<title>corallium.loggers.rich_printer&#45;&gt;corallium.loggers.styles</title>
<path fill="none" stroke="black" d="M104.33,-180.3C111.48,-188.78 120.21,-199.14 128.03,-208.42"/>
<polygon fill="black" stroke="black" points="134.33,-215.9 124.45,-211.15 131.11,-212.07 127.89,-208.25 127.89,-208.25 127.89,-208.25 131.11,-212.07 131.33,-205.35 134.33,-215.9 134.33,-215.9"/>
</g>
<!-- corallium.loggers.structlog_logger -->
<g id="node7" class="node">
<title>corallium.loggers.structlog_logger</title>
<polygon fill="none" stroke="black" points="899.88,-36 695.62,-36 695.62,0 899.88,0 899.88,-36"/>
<text text-anchor="middle" x="797.75" y="-12.95" font-family="Times,serif" font-size="14.00">corallium.loggers.structlog_logger</text>
</g>
<!-- corallium.loggers.structlog_logger._structlog_logger -->
<g id="node8" class="node">
<title>corallium.loggers.structlog_logger._structlog_logger</title>
<polygon fill="none" stroke="black" points="949,-108 646.5,-108 646.5,-72 949,-72 949,-108"/>
<text text-anchor="middle" x="797.75" y="-84.95" font-family="Times,serif" font-size="14.00">corallium.loggers.structlog_logger._structlog_logger</text>
</g>
<!-- corallium.loggers.structlog_logger&#45;&gt;corallium.loggers.structlog_logger._structlog_logger -->
<g id="edge6" class="edge">
<title>corallium.loggers.structlog_logger&#45;&gt;corallium.loggers.structlog_logger._structlog_logger</title>
<path fill="none" stroke="black" d="M797.75,-36.3C797.75,-44.1 797.75,-53.49 797.75,-62.17"/>
<polygon fill="black" stroke="black" points="797.75,-71.9 793.25,-61.9 797.75,-66.9 797.75,-61.9 797.75,-61.9 797.75,-61.9 797.75,-66.9 802.25,-61.9 797.75,-71.9 797.75,-71.9"/>
</g>
<!-- corallium.pretty_process -->
<g id="node10" class="node">
<title>corallium.pretty_process</title>
<polygon fill="none" stroke="black" points="1069.25,-36 918.25,-36 918.25,0 1069.25,0 1069.25,-36"/>
<text text-anchor="middle" x="993.75" y="-12.95" font-family="Times,serif" font-size="14.00">corallium.pretty_process</text>
</g>
<!-- corallium.shell -->
<g id="node11" class="node">
<title>corallium.shell</title>
<polygon fill="none" stroke="black" points="189.62,-36 91.88,-36 91.88,0 189.62,0 189.62,-36"/>
<text text-anchor="middle" x="140.75" y="-12.95" font-family="Times,serif" font-size="14.00">corallium.shell</text>
</g>
<!-- corallium.shell&#45;&gt;corallium.log -->
<g id="edge7" class="edge">
<title>corallium.shell&#45;&gt;corallium.log</title>
<path fill="none" stroke="black" d="M142.73,-36.3C143.62,-44.1 144.69,-53.49 145.68,-62.17"/>
<polygon fill="black" stroke="black" points="146.8,-71.9 141.19,-62.47 146.23,-66.93 145.66,-61.96 145.66,-61.96 145.66,-61.96 146.23,-66.93 150.13,-61.45 146.8,-71.9 146.8,-71.9"/>
</g>
</g>
</svg>
