<?xml version="1.0" encoding="UTF-8" standalone="no"?>
<!DOCTYPE svg PUBLIC "-//W3C//DTD SVG 1.1//EN"
 "http://www.w3.org/Graphics/SVG/1.1/DTD/svg11.dtd">
<!-- Generated by graphviz version 8.0.3 (20230416.2022)
 -->
<!-- Title: packages Pages: 1 -->
<svg width="1083pt" height="260pt"
 viewBox="0.00 0.00 1083.00 260.00" xmlns="http://www.w3.org/2000/svg" xmlns:xlink="http://www.w3.org/1999/xlink">
<g id="graph0" class="graph" transform="scale(1 1) rotate(0) translate(4 256)">
<title>packages</title>
<polygon fill="white" stroke="none" points="-4,4 -4,-256 1079,-256 1079,4 -4,4"/>
<!-- corallium -->
<g id="node1" class="node">
<title>corallium</title>
<polygon fill="none" stroke="black" points="73.5,-36 4.5,-36 4.5,0 73.5,0 73.5,-36"/>
<text text-anchor="middle" x="39" y="-14.3" font-family="Times,serif" font-size="14.00">corallium</text>
</g>
<!-- corallium.file_helpers -->
<g id="node2" class="node">
<title>corallium.file_helpers</title>
<polygon fill="none" stroke="black" points="345.5,-36 208.5,-36 208.5,0 345.5,0 345.5,-36"/>
<text text-anchor="middle" x="277" y="-14.3" font-family="Times,serif" font-size="14.00">corallium.file_helpers</text>
</g>
<!-- corallium.log -->
<g id="node3" class="node">
<title>corallium.log</title>
<polygon fill="none" stroke="black" points="194,-108 104,-108 104,-72 194,-72 194,-108"/>
<text text-anchor="middle" x="149" y="-86.3" font-family="Times,serif" font-size="14.00">corallium.log</text>
</g>
<!-- corallium.file_helpers&#45;&gt;corallium.log -->
<g id="edge1" class="edge">
<title>corallium.file_helpers&#45;&gt;corallium.log</title>
<path fill="none" stroke="black" d="M245.03,-36.48C228.1,-45.74 207.15,-57.2 189.14,-67.05"/>
<polygon fill="black" stroke="black" points="180.56,-71.74 187.18,-62.99 184.95,-69.34 189.34,-66.94 189.34,-66.94 189.34,-66.94 184.95,-69.34 191.5,-70.89 180.56,-71.74 180.56,-71.74"/>
</g>
<!-- corallium.tomllib -->
<g id="node12" class="node">
<title>corallium.tomllib</title>
<polygon fill="none" stroke="black" points="333.5,-108 220.5,-108 220.5,-72 333.5,-72 333.5,-108"/>
<text text-anchor="middle" x="277" y="-86.3" font-family="Times,serif" font-size="14.00">corallium.tomllib</text>
</g>
<!-- corallium.file_helpers&#45;&gt;corallium.tomllib -->
<g id="edge2" class="edge">
<title>corallium.file_helpers&#45;&gt;corallium.tomllib</title>
<path fill="none" stroke="black" d="M277,-36.3C277,-44.1 277,-53.49 277,-62.17"/>
<polygon fill="black" stroke="black" points="277,-71.9 272.5,-61.9 277,-66.9 277,-61.9 277,-61.9 277,-61.9 277,-66.9 281.5,-61.9 277,-71.9 277,-71.9"/>
</g>
<!-- corallium.loggers.rich_printer -->
<g id="node6" class="node">
<title>corallium.loggers.rich_printer</title>
<polygon fill="none" stroke="black" points="180,-180 0,-180 0,-144 180,-144 180,-180"/>
<text text-anchor="middle" x="90" y="-158.3" font-family="Times,serif" font-size="14.00">corallium.loggers.rich_printer</text>
</g>
<!-- corallium.log&#45;&gt;corallium.loggers.rich_printer -->
<g id="edge3" class="edge">
<title>corallium.log&#45;&gt;corallium.loggers.rich_printer</title>
<path fill="none" stroke="black" d="M134.42,-108.3C127.27,-116.78 118.54,-127.14 110.72,-136.42"/>
<polygon fill="black" stroke="black" points="104.42,-143.9 107.42,-133.35 107.64,-140.07 110.86,-136.25 110.86,-136.25 110.86,-136.25 107.64,-140.07 114.3,-139.15 104.42,-143.9 104.42,-143.9"/>
</g>
<!-- corallium.loggers.styles -->
<g id="node9" class="node">
<title>corallium.loggers.styles</title>
<polygon fill="none" stroke="black" points="222.5,-252 75.5,-252 75.5,-216 222.5,-216 222.5,-252"/>
<text text-anchor="middle" x="149" y="-230.3" font-family="Times,serif" font-size="14.00">corallium.loggers.styles</text>
</g>
<!-- corallium.log&#45;&gt;corallium.loggers.styles -->
<g id="edge4" class="edge">
<title>corallium.log&#45;&gt;corallium.loggers.styles</title>
<path fill="none" stroke="black" d="M166.73,-108.4C175.24,-118 184.53,-130.66 189,-144 194.08,-159.17 194.08,-164.83 189,-180 185.61,-190.11 179.46,-199.82 172.97,-208.12"/>
<polygon fill="black" stroke="black" points="166.73,-215.6 169.68,-205.04 169.94,-211.76 173.14,-207.92 173.14,-207.92 173.14,-207.92 169.94,-211.76 176.59,-210.8 166.73,-215.6 166.73,-215.6"/>
</g>
<!-- corallium.loggers -->
<g id="node4" class="node">
<title>corallium.loggers</title>
<polygon fill="none" stroke="black" points="476.5,-36 363.5,-36 363.5,0 476.5,0 476.5,-36"/>
<text text-anchor="middle" x="420" y="-14.3" font-family="Times,serif" font-size="14.00">corallium.loggers</text>
</g>
<!-- corallium.loggers.plain_printer -->
<g id="node5" class="node">
<title>corallium.loggers.plain_printer</title>
<polygon fill="none" stroke="black" points="681,-36 495,-36 495,0 681,0 681,-36"/>
<text text-anchor="middle" x="588" y="-14.3" font-family="Times,serif" font-size="14.00">corallium.loggers.plain_printer</text>
</g>
<!-- corallium.loggers.rich_printer&#45;&gt;corallium.loggers.styles -->
<g id="edge5" class="edge">
<title>corallium.loggers.rich_printer&#45;&gt;corallium.loggers.styles</title>
<path fill="none" stroke="black" d="M104.58,-180.3C111.73,-188.78 120.46,-199.14 128.28,-208.42"/>
<polygon fill="black" stroke="black" points="134.58,-215.9 124.7,-211.15 131.36,-212.07 128.14,-208.25 128.14,-208.25 128.14,-208.25 131.36,-212.07 131.58,-205.35 134.58,-215.9 134.58,-215.9"/>
</g>
<!-- corallium.loggers.structlog_logger -->
<g id="node7" class="node">
<title>corallium.loggers.structlog_logger</title>
<polygon fill="none" stroke="black" points="904.5,-36 699.5,-36 699.5,0 904.5,0 904.5,-36"/>
<text text-anchor="middle" x="802" y="-14.3" font-family="Times,serif" font-size="14.00">corallium.loggers.structlog_logger</text>
</g>
<!-- corallium.loggers.structlog_logger._structlog_logger -->
<g id="node8" class="node">
<title>corallium.loggers.structlog_logger._structlog_logger</title>
<polygon fill="none" stroke="black" points="953.5,-108 650.5,-108 650.5,-72 953.5,-72 953.5,-108"/>
<text text-anchor="middle" x="802" y="-86.3" font-family="Times,serif" font-size="14.00">corallium.loggers.structlog_logger._structlog_logger</text>
</g>
<!-- corallium.loggers.structlog_logger&#45;&gt;corallium.loggers.structlog_logger._structlog_logger -->
<g id="edge6" class="edge">
<title>corallium.loggers.structlog_logger&#45;&gt;corallium.loggers.structlog_logger._structlog_logger</title>
<path fill="none" stroke="black" d="M802,-36.3C802,-44.1 802,-53.49 802,-62.17"/>
<polygon fill="black" stroke="black" points="802,-71.9 797.5,-61.9 802,-66.9 802,-61.9 802,-61.9 802,-61.9 802,-66.9 806.5,-61.9 802,-71.9 802,-71.9"/>
</g>
<!-- corallium.pretty_process -->
<g id="node10" class="node">
<title>corallium.pretty_process</title>
<polygon fill="none" stroke="black" points="1075,-36 923,-36 923,0 1075,0 1075,-36"/>
<text text-anchor="middle" x="999" y="-14.3" font-family="Times,serif" font-size="14.00">corallium.pretty_process</text>
</g>
<!-- corallium.shell -->
<g id="node11" class="node">
<title>corallium.shell</title>
<polygon fill="none" stroke="black" points="190,-36 92,-36 92,0 190,0 190,-36"/>
<text text-anchor="middle" x="141" y="-14.3" font-family="Times,serif" font-size="14.00">corallium.shell</text>
</g>
<!-- corallium.shell&#45;&gt;corallium.log -->
<g id="edge7" class="edge">
<title>corallium.shell&#45;&gt;corallium.log</title>
<path fill="none" stroke="black" d="M142.98,-36.3C143.87,-44.1 144.94,-53.49 145.93,-62.17"/>
<polygon fill="black" stroke="black" points="147.05,-71.9 141.44,-62.47 146.48,-66.93 145.91,-61.96 145.91,-61.96 145.91,-61.96 146.48,-66.93 150.38,-61.45 147.05,-71.9 147.05,-71.9"/>
</g>
</g>
</svg>
