<?xml version="1.0" encoding="UTF-8" standalone="no"?>
<!DOCTYPE svg PUBLIC "-//W3C//DTD SVG 1.1//EN"
 "http://www.w3.org/Graphics/SVG/1.1/DTD/svg11.dtd">
<!-- Generated by graphviz version 7.1.0 (20230121.1956)
 -->
<!-- Title: packages Pages: 1 -->
<svg width="646pt" height="116pt"
 viewBox="0.00 0.00 645.50 116.00" xmlns="http://www.w3.org/2000/svg" xmlns:xlink="http://www.w3.org/1999/xlink">
<g id="graph0" class="graph" transform="scale(1 1) rotate(0) translate(4 112)">
<title>packages</title>
<polygon fill="white" stroke="none" points="-4,4 -4,-112 641.5,-112 641.5,4 -4,4"/>
<!-- corallium -->
<g id="node1" class="node">
<title>corallium</title>
<polygon fill="none" stroke="black" points="69,-36 0,-36 0,0 69,0 69,-36"/>
<text text-anchor="middle" x="34.5" y="-14.3" font-family="Times,serif" font-size="14.00">corallium</text>
</g>
<!-- corallium.file_helpers -->
<g id="node2" class="node">
<title>corallium.file_helpers</title>
<polygon fill="none" stroke="black" points="341,-36 204,-36 204,0 341,0 341,-36"/>
<text text-anchor="middle" x="272.5" y="-14.3" font-family="Times,serif" font-size="14.00">corallium.file_helpers</text>
</g>
<!-- corallium.log -->
<g id="node3" class="node">
<title>corallium.log</title>
<polygon fill="none" stroke="black" points="189.5,-108 99.5,-108 99.5,-72 189.5,-72 189.5,-108"/>
<text text-anchor="middle" x="144.5" y="-86.3" font-family="Times,serif" font-size="14.00">corallium.log</text>
</g>
<!-- corallium.file_helpers&#45;&gt;corallium.log -->
<g id="edge1" class="edge">
<title>corallium.file_helpers&#45;&gt;corallium.log</title>
<path fill="none" stroke="black" d="M240.53,-36.48C223.6,-45.74 202.65,-57.2 184.64,-67.05"/>
<polygon fill="black" stroke="black" points="176.06,-71.74 182.68,-62.99 180.45,-69.34 184.84,-66.94 184.84,-66.94 184.84,-66.94 180.45,-69.34 187,-70.89 176.06,-71.74 176.06,-71.74"/>
</g>
<!-- corallium.tomllib -->
<g id="node7" class="node">
<title>corallium.tomllib</title>
<polygon fill="none" stroke="black" points="329,-108 216,-108 216,-72 329,-72 329,-108"/>
<text text-anchor="middle" x="272.5" y="-86.3" font-family="Times,serif" font-size="14.00">corallium.tomllib</text>
</g>
<!-- corallium.file_helpers&#45;&gt;corallium.tomllib -->
<g id="edge2" class="edge">
<title>corallium.file_helpers&#45;&gt;corallium.tomllib</title>
<path fill="none" stroke="black" d="M272.5,-36.3C272.5,-44.1 272.5,-53.49 272.5,-62.17"/>
<polygon fill="black" stroke="black" points="272.5,-71.9 268,-61.9 272.5,-66.9 272.5,-61.9 272.5,-61.9 272.5,-61.9 272.5,-66.9 277,-61.9 272.5,-71.9 272.5,-71.9"/>
</g>
<!-- corallium.pretty_process -->
<g id="node4" class="node">
<title>corallium.pretty_process</title>
<polygon fill="none" stroke="black" points="511.5,-36 359.5,-36 359.5,0 511.5,0 511.5,-36"/>
<text text-anchor="middle" x="435.5" y="-14.3" font-family="Times,serif" font-size="14.00">corallium.pretty_process</text>
</g>
<!-- corallium.scripts -->
<g id="node5" class="node">
<title>corallium.scripts</title>
<polygon fill="none" stroke="black" points="637.5,-36 529.5,-36 529.5,0 637.5,0 637.5,-36"/>
<text text-anchor="middle" x="583.5" y="-14.3" font-family="Times,serif" font-size="14.00">corallium.scripts</text>
</g>
<!-- corallium.shell -->
<g id="node6" class="node">
<title>corallium.shell</title>
<polygon fill="none" stroke="black" points="185.5,-36 87.5,-36 87.5,0 185.5,0 185.5,-36"/>
<text text-anchor="middle" x="136.5" y="-14.3" font-family="Times,serif" font-size="14.00">corallium.shell</text>
</g>
<!-- corallium.shell&#45;&gt;corallium.log -->
<g id="edge3" class="edge">
<title>corallium.shell&#45;&gt;corallium.log</title>
<path fill="none" stroke="black" d="M138.48,-36.3C139.37,-44.1 140.44,-53.49 141.43,-62.17"/>
<polygon fill="black" stroke="black" points="142.55,-71.9 136.94,-62.47 141.98,-66.93 141.41,-61.96 141.41,-61.96 141.41,-61.96 141.98,-66.93 145.88,-61.45 142.55,-71.9 142.55,-71.9"/>
</g>
</g>
</svg>
