<?xml version="1.0" encoding="UTF-8" standalone="no"?>
<!DOCTYPE svg PUBLIC "-//W3C//DTD SVG 1.1//EN"
 "http://www.w3.org/Graphics/SVG/1.1/DTD/svg11.dtd">
<!-- Generated by graphviz version 7.1.0 (20230121.1956)
 -->
<!-- Title: packages Pages: 1 -->
<svg width="944pt" height="260pt"
 viewBox="0.00 0.00 943.50 260.00" xmlns="http://www.w3.org/2000/svg" xmlns:xlink="http://www.w3.org/1999/xlink">
<g id="graph0" class="graph" transform="scale(1 1) rotate(0) translate(4 256)">
<title>packages</title>
<polygon fill="white" stroke="none" points="-4,4 -4,-256 939.5,-256 939.5,4 -4,4"/>
<!-- corallium -->
<g id="node1" class="node">
<title>corallium</title>
<polygon fill="none" stroke="black" points="69,-36 0,-36 0,0 69,0 69,-36"/>
<text text-anchor="middle" x="34.5" y="-14.3" font-family="Times,serif" font-size="14.00">corallium</text>
</g>
<!-- corallium.file_helpers -->
<g id="node2" class="node">
<title>corallium.file_helpers</title>
<polygon fill="none" stroke="black" points="341,-36 204,-36 204,0 341,0 341,-36"/>
<text text-anchor="middle" x="272.5" y="-14.3" font-family="Times,serif" font-size="14.00">corallium.file_helpers</text>
</g>
<!-- corallium.log -->
<g id="node3" class="node">
<title>corallium.log</title>
<polygon fill="none" stroke="black" points="189.5,-108 99.5,-108 99.5,-72 189.5,-72 189.5,-108"/>
<text text-anchor="middle" x="144.5" y="-86.3" font-family="Times,serif" font-size="14.00">corallium.log</text>
</g>
<!-- corallium.file_helpers&#45;&gt;corallium.log -->
<g id="edge1" class="edge">
<title>corallium.file_helpers&#45;&gt;corallium.log</title>
<path fill="none" stroke="black" d="M240.53,-36.48C223.6,-45.74 202.65,-57.2 184.64,-67.05"/>
<polygon fill="black" stroke="black" points="176.06,-71.74 182.68,-62.99 180.45,-69.34 184.84,-66.94 184.84,-66.94 184.84,-66.94 180.45,-69.34 187,-70.89 176.06,-71.74 176.06,-71.74"/>
</g>
<!-- corallium.tomllib -->
<g id="node11" class="node">
<title>corallium.tomllib</title>
<polygon fill="none" stroke="black" points="329,-108 216,-108 216,-72 329,-72 329,-108"/>
<text text-anchor="middle" x="272.5" y="-86.3" font-family="Times,serif" font-size="14.00">corallium.tomllib</text>
</g>
<!-- corallium.file_helpers&#45;&gt;corallium.tomllib -->
<g id="edge2" class="edge">
<title>corallium.file_helpers&#45;&gt;corallium.tomllib</title>
<path fill="none" stroke="black" d="M272.5,-36.3C272.5,-44.1 272.5,-53.49 272.5,-62.17"/>
<polygon fill="black" stroke="black" points="272.5,-71.9 268,-61.9 272.5,-66.9 272.5,-61.9 272.5,-61.9 272.5,-61.9 272.5,-66.9 277,-61.9 272.5,-71.9 272.5,-71.9"/>
</g>
<!-- corallium.loggers.rich_printer -->
<g id="node5" class="node">
<title>corallium.loggers.rich_printer</title>
<polygon fill="none" stroke="black" points="234.5,-180 54.5,-180 54.5,-144 234.5,-144 234.5,-180"/>
<text text-anchor="middle" x="144.5" y="-158.3" font-family="Times,serif" font-size="14.00">corallium.loggers.rich_printer</text>
</g>
<!-- corallium.log&#45;&gt;corallium.loggers.rich_printer -->
<g id="edge3" class="edge">
<title>corallium.log&#45;&gt;corallium.loggers.rich_printer</title>
<path fill="none" stroke="black" d="M144.5,-108.3C144.5,-116.1 144.5,-125.49 144.5,-134.17"/>
<polygon fill="black" stroke="black" points="144.5,-143.9 140,-133.9 144.5,-138.9 144.5,-133.9 144.5,-133.9 144.5,-133.9 144.5,-138.9 149,-133.9 144.5,-143.9 144.5,-143.9"/>
</g>
<!-- corallium.loggers -->
<g id="node4" class="node">
<title>corallium.loggers</title>
<polygon fill="none" stroke="black" points="472,-36 359,-36 359,0 472,0 472,-36"/>
<text text-anchor="middle" x="415.5" y="-14.3" font-family="Times,serif" font-size="14.00">corallium.loggers</text>
</g>
<!-- corallium.loggers.styles -->
<g id="node6" class="node">
<title>corallium.loggers.styles</title>
<polygon fill="none" stroke="black" points="218,-252 71,-252 71,-216 218,-216 218,-252"/>
<text text-anchor="middle" x="144.5" y="-230.3" font-family="Times,serif" font-size="14.00">corallium.loggers.styles</text>
</g>
<!-- corallium.loggers.rich_printer&#45;&gt;corallium.loggers.styles -->
<g id="edge4" class="edge">
<title>corallium.loggers.rich_printer&#45;&gt;corallium.loggers.styles</title>
<path fill="none" stroke="black" d="M144.5,-180.3C144.5,-188.1 144.5,-197.49 144.5,-206.17"/>
<polygon fill="black" stroke="black" points="144.5,-215.9 140,-205.9 144.5,-210.9 144.5,-205.9 144.5,-205.9 144.5,-205.9 144.5,-210.9 149,-205.9 144.5,-215.9 144.5,-215.9"/>
</g>
<!-- corallium.loggers.writer -->
<g id="node7" class="node">
<title>corallium.loggers.writer</title>
<polygon fill="none" stroke="black" points="639,-36 490,-36 490,0 639,0 639,-36"/>
<text text-anchor="middle" x="564.5" y="-14.3" font-family="Times,serif" font-size="14.00">corallium.loggers.writer</text>
</g>
<!-- corallium.pretty_process -->
<g id="node8" class="node">
<title>corallium.pretty_process</title>
<polygon fill="none" stroke="black" points="809.5,-36 657.5,-36 657.5,0 809.5,0 809.5,-36"/>
<text text-anchor="middle" x="733.5" y="-14.3" font-family="Times,serif" font-size="14.00">corallium.pretty_process</text>
</g>
<!-- corallium.scripts -->
<g id="node9" class="node">
<title>corallium.scripts</title>
<polygon fill="none" stroke="black" points="935.5,-36 827.5,-36 827.5,0 935.5,0 935.5,-36"/>
<text text-anchor="middle" x="881.5" y="-14.3" font-family="Times,serif" font-size="14.00">corallium.scripts</text>
</g>
<!-- corallium.shell -->
<g id="node10" class="node">
<title>corallium.shell</title>
<polygon fill="none" stroke="black" points="185.5,-36 87.5,-36 87.5,0 185.5,0 185.5,-36"/>
<text text-anchor="middle" x="136.5" y="-14.3" font-family="Times,serif" font-size="14.00">corallium.shell</text>
</g>
<!-- corallium.shell&#45;&gt;corallium.log -->
<g id="edge5" class="edge">
<title>corallium.shell&#45;&gt;corallium.log</title>
<path fill="none" stroke="black" d="M138.48,-36.3C139.37,-44.1 140.44,-53.49 141.43,-62.17"/>
<polygon fill="black" stroke="black" points="142.55,-71.9 136.94,-62.47 141.98,-66.93 141.41,-61.96 141.41,-61.96 141.41,-61.96 141.98,-66.93 145.88,-61.45 142.55,-71.9 142.55,-71.9"/>
</g>
</g>
</svg>
