<?xml version="1.0" encoding="UTF-8" standalone="no"?>
<!DOCTYPE svg PUBLIC "-//W3C//DTD SVG 1.1//EN"
 "http://www.w3.org/Graphics/SVG/1.1/DTD/svg11.dtd">
<!-- Generated by graphviz version 10.0.1 (20240210.2158)
 -->
<!-- Title: packages Pages: 1 -->
<svg width="1077pt" height="260pt"
 viewBox="0.00 0.00 1077.25 260.00" xmlns="http://www.w3.org/2000/svg" xmlns:xlink="http://www.w3.org/1999/xlink">
<g id="graph0" class="graph" transform="scale(1 1) rotate(0) translate(4 256)">
<title>packages</title>
<polygon fill="white" stroke="none" points="-4,4 -4,-256 1073.25,-256 1073.25,4 -4,4"/>
<!-- corallium -->
<g id="node1" class="node">
<title>corallium</title>
<polygon fill="none" stroke="black" points="74,-36 5.5,-36 5.5,0 74,0 74,-36"/>
<text text-anchor="middle" x="39.75" y="-12.95" font-family="Times,serif" font-size="14.00">corallium</text>
</g>
<!-- corallium.file_helpers -->
<g id="node2" class="node">
<title>corallium.file_helpers</title>
<polygon fill="none" stroke="black" points="343.75,-36 207.75,-36 207.75,0 343.75,0 343.75,-36"/>
<text text-anchor="middle" x="275.75" y="-12.95" font-family="Times,serif" font-size="14.00">corallium.file_helpers</text>
</g>
<!-- corallium.log -->
<g id="node3" class="node">
<title>corallium.log</title>
<polygon fill="none" stroke="black" points="193.5,-108 104,-108 104,-72 193.5,-72 193.5,-108"/>
<text text-anchor="middle" x="148.75" y="-84.95" font-family="Times,serif" font-size="14.00">corallium.log</text>
</g>
<!-- corallium.file_helpers&#45;&gt;corallium.log -->
<g id="edge1" class="edge">
<title>corallium.file_helpers&#45;&gt;corallium.log</title>
<path fill="none" stroke="black" d="M244.03,-36.48C227.54,-45.57 207.2,-56.78 189.55,-66.51"/>
<polygon fill="black" stroke="black" points="181.13,-71.15 187.72,-62.38 184.44,-69.33 189.89,-66.32 189.89,-66.32 189.89,-66.32 184.44,-69.33 192.06,-70.27 181.13,-71.15"/>
</g>
<!-- corallium.tomllib -->
<g id="node12" class="node">
<title>corallium.tomllib</title>
<polygon fill="none" stroke="black" points="331.75,-108 219.75,-108 219.75,-72 331.75,-72 331.75,-108"/>
<text text-anchor="middle" x="275.75" y="-84.95" font-family="Times,serif" font-size="14.00">corallium.tomllib</text>
</g>
<!-- corallium.file_helpers&#45;&gt;corallium.tomllib -->
<g id="edge2" class="edge">
<title>corallium.file_helpers&#45;&gt;corallium.tomllib</title>
<path fill="none" stroke="black" d="M275.75,-36.3C275.75,-43.68 275.75,-52.48 275.75,-60.75"/>
<polygon fill="black" stroke="black" points="275.75,-70.68 271.25,-60.68 275.75,-66.9 275.75,-60.68 275.75,-60.68 275.75,-60.68 275.75,-66.9 280.25,-60.68 275.75,-70.68"/>
</g>
<!-- corallium.loggers.rich_printer -->
<g id="node6" class="node">
<title>corallium.loggers.rich_printer</title>
<polygon fill="none" stroke="black" points="179.5,-180 0,-180 0,-144 179.5,-144 179.5,-180"/>
<text text-anchor="middle" x="89.75" y="-156.95" font-family="Times,serif" font-size="14.00">corallium.loggers.rich_printer</text>
</g>
<!-- corallium.log&#45;&gt;corallium.loggers.rich_printer -->
<g id="edge3" class="edge">
<title>corallium.log&#45;&gt;corallium.loggers.rich_printer</title>
<path fill="none" stroke="black" d="M134.17,-108.3C127.24,-116.53 118.81,-126.52 111.18,-135.58"/>
<polygon fill="black" stroke="black" points="104.95,-142.96 107.96,-132.42 107.39,-140.07 111.4,-135.32 111.4,-135.32 111.4,-135.32 107.39,-140.07 114.84,-138.22 104.95,-142.96"/>
</g>
<!-- corallium.loggers.styles -->
<g id="node9" class="node">
<title>corallium.loggers.styles</title>
<polygon fill="none" stroke="black" points="222,-252 75.5,-252 75.5,-216 222,-216 222,-252"/>
<text text-anchor="middle" x="148.75" y="-228.95" font-family="Times,serif" font-size="14.00">corallium.loggers.styles</text>
</g>
<!-- corallium.log&#45;&gt;corallium.loggers.styles -->
<g id="edge4" class="edge">
<title>corallium.log&#45;&gt;corallium.loggers.styles</title>
<path fill="none" stroke="black" d="M166.48,-108.4C174.99,-118 184.28,-130.66 188.75,-144 193.83,-159.17 193.83,-164.83 188.75,-180 185.5,-189.69 179.71,-199.02 173.52,-207.09"/>
<polygon fill="black" stroke="black" points="167.26,-214.66 170.16,-204.09 169.67,-211.75 173.63,-206.95 173.63,-206.95 173.63,-206.95 169.67,-211.75 177.1,-209.82 167.26,-214.66"/>
</g>
<!-- corallium.loggers -->
<g id="node4" class="node">
<title>corallium.loggers</title>
<polygon fill="none" stroke="black" points="473.75,-36 361.75,-36 361.75,0 473.75,0 473.75,-36"/>
<text text-anchor="middle" x="417.75" y="-12.95" font-family="Times,serif" font-size="14.00">corallium.loggers</text>
</g>
<!-- corallium.loggers.plain_printer -->
<g id="node5" class="node">
<title>corallium.loggers.plain_printer</title>
<polygon fill="none" stroke="black" points="677.5,-36 492,-36 492,0 677.5,0 677.5,-36"/>
<text text-anchor="middle" x="584.75" y="-12.95" font-family="Times,serif" font-size="14.00">corallium.loggers.plain_printer</text>
</g>
<!-- corallium.loggers.rich_printer&#45;&gt;corallium.loggers.styles -->
<g id="edge5" class="edge">
<title>corallium.loggers.rich_printer&#45;&gt;corallium.loggers.styles</title>
<path fill="none" stroke="black" d="M104.33,-180.3C111.26,-188.53 119.69,-198.52 127.32,-207.58"/>
<polygon fill="black" stroke="black" points="133.55,-214.96 123.66,-210.22 131.11,-212.07 127.1,-207.32 127.1,-207.32 127.1,-207.32 131.11,-212.07 130.54,-204.42 133.55,-214.96"/>
</g>
<!-- corallium.loggers.structlog_logger -->
<g id="node7" class="node">
<title>corallium.loggers.structlog_logger</title>
<polygon fill="none" stroke="black" points="899.88,-36 695.62,-36 695.62,0 899.88,0 899.88,-36"/>
<text text-anchor="middle" x="797.75" y="-12.95" font-family="Times,serif" font-size="14.00">corallium.loggers.structlog_logger</text>
</g>
<!-- corallium.loggers.structlog_logger._structlog_logger -->
<g id="node8" class="node">
<title>corallium.loggers.structlog_logger._structlog_logger</title>
<polygon fill="none" stroke="black" points="949,-108 646.5,-108 646.5,-72 949,-72 949,-108"/>
<text text-anchor="middle" x="797.75" y="-84.95" font-family="Times,serif" font-size="14.00">corallium.loggers.structlog_logger._structlog_logger</text>
</g>
<!-- corallium.loggers.structlog_logger&#45;&gt;corallium.loggers.structlog_logger._structlog_logger -->
<g id="edge6" class="edge">
<title>corallium.loggers.structlog_logger&#45;&gt;corallium.loggers.structlog_logger._structlog_logger</title>
<path fill="none" stroke="black" d="M797.75,-36.3C797.75,-43.68 797.75,-52.48 797.75,-60.75"/>
<polygon fill="black" stroke="black" points="797.75,-70.68 793.25,-60.68 797.75,-66.9 797.75,-60.68 797.75,-60.68 797.75,-60.68 797.75,-66.9 802.25,-60.68 797.75,-70.68"/>
</g>
<!-- corallium.pretty_process -->
<g id="node10" class="node">
<title>corallium.pretty_process</title>
<polygon fill="none" stroke="black" points="1069.25,-36 918.25,-36 918.25,0 1069.25,0 1069.25,-36"/>
<text text-anchor="middle" x="993.75" y="-12.95" font-family="Times,serif" font-size="14.00">corallium.pretty_process</text>
</g>
<!-- corallium.shell -->
<g id="node11" class="node">
<title>corallium.shell</title>
<polygon fill="none" stroke="black" points="189.62,-36 91.88,-36 91.88,0 189.62,0 189.62,-36"/>
<text text-anchor="middle" x="140.75" y="-12.95" font-family="Times,serif" font-size="14.00">corallium.shell</text>
</g>
<!-- corallium.shell&#45;&gt;corallium.log -->
<g id="edge7" class="edge">
<title>corallium.shell&#45;&gt;corallium.log</title>
<path fill="none" stroke="black" d="M142.73,-36.3C143.57,-43.68 144.58,-52.48 145.52,-60.75"/>
<polygon fill="black" stroke="black" points="146.66,-70.69 141.05,-61.26 146.23,-66.93 145.52,-60.75 145.52,-60.75 145.52,-60.75 146.23,-66.93 149.99,-60.24 146.66,-70.69"/>
</g>
</g>
</svg>
