<?xml version="1.0" encoding="UTF-8" standalone="no"?>
<!DOCTYPE svg PUBLIC "-//W3C//DTD SVG 1.1//EN"
 "http://www.w3.org/Graphics/SVG/1.1/DTD/svg11.dtd">
<!-- Generated by graphviz version 2.43.0 (0)
 -->
<!-- Title: packages Pages: 1 -->
<svg width="1155pt" height="260pt"
 viewBox="0.00 0.00 1155.00 260.00" xmlns="http://www.w3.org/2000/svg" xmlns:xlink="http://www.w3.org/1999/xlink">
<g id="graph0" class="graph" transform="scale(1 1) rotate(0) translate(4 256)">
<title>packages</title>
<polygon fill="white" stroke="transparent" points="-4,4 -4,-256 1151,-256 1151,4 -4,4"/>
<!-- corallium -->
<g id="node1" class="node">
<title>corallium</title>
<polygon fill="none" stroke="black" points="83,-36 0,-36 0,0 83,0 83,-36"/>
<text text-anchor="middle" x="41.5" y="-14.3" font-family="Times,serif" font-size="14.00">corallium</text>
</g>
<!-- corallium.file_helpers -->
<g id="node2" class="node">
<title>corallium.file_helpers</title>
<polygon fill="none" stroke="black" points="411.5,-36 241.5,-36 241.5,0 411.5,0 411.5,-36"/>
<text text-anchor="middle" x="326.5" y="-14.3" font-family="Times,serif" font-size="14.00">corallium.file_helpers</text>
</g>
<!-- corallium.log -->
<g id="node3" class="node">
<title>corallium.log</title>
<polygon fill="none" stroke="black" points="228.5,-108 118.5,-108 118.5,-72 228.5,-72 228.5,-108"/>
<text text-anchor="middle" x="173.5" y="-86.3" font-family="Times,serif" font-size="14.00">corallium.log</text>
</g>
<!-- corallium.file_helpers&#45;&gt;corallium.log -->
<g id="edge1" class="edge">
<title>corallium.file_helpers&#45;&gt;corallium.log</title>
<path fill="none" stroke="black" d="M289.07,-36.12C268.25,-45.65 242.15,-57.59 220.02,-67.72"/>
<polygon fill="black" stroke="black" points="210.81,-71.93 218.03,-63.68 215.35,-69.85 219.9,-67.77 219.9,-67.77 219.9,-67.77 215.35,-69.85 221.77,-71.86 210.81,-71.93 210.81,-71.93"/>
</g>
<!-- corallium.tomllib -->
<g id="node11" class="node">
<title>corallium.tomllib</title>
<polygon fill="none" stroke="black" points="395.5,-108 257.5,-108 257.5,-72 395.5,-72 395.5,-108"/>
<text text-anchor="middle" x="326.5" y="-86.3" font-family="Times,serif" font-size="14.00">corallium.tomllib</text>
</g>
<!-- corallium.file_helpers&#45;&gt;corallium.tomllib -->
<g id="edge2" class="edge">
<title>corallium.file_helpers&#45;&gt;corallium.tomllib</title>
<path fill="none" stroke="black" d="M326.5,-36.3C326.5,-44.02 326.5,-53.29 326.5,-61.89"/>
<polygon fill="black" stroke="black" points="326.5,-71.9 322,-61.9 326.5,-66.9 326.5,-61.9 326.5,-61.9 326.5,-61.9 326.5,-66.9 331,-61.9 326.5,-71.9 326.5,-71.9"/>
</g>
<!-- corallium.loggers.rich_printer -->
<g id="node5" class="node">
<title>corallium.loggers.rich_printer</title>
<polygon fill="none" stroke="black" points="288.5,-180 58.5,-180 58.5,-144 288.5,-144 288.5,-180"/>
<text text-anchor="middle" x="173.5" y="-158.3" font-family="Times,serif" font-size="14.00">corallium.loggers.rich_printer</text>
</g>
<!-- corallium.log&#45;&gt;corallium.loggers.rich_printer -->
<g id="edge3" class="edge">
<title>corallium.log&#45;&gt;corallium.loggers.rich_printer</title>
<path fill="none" stroke="black" d="M173.5,-108.3C173.5,-116.02 173.5,-125.29 173.5,-133.89"/>
<polygon fill="black" stroke="black" points="173.5,-143.9 169,-133.9 173.5,-138.9 173.5,-133.9 173.5,-133.9 173.5,-133.9 173.5,-138.9 178,-133.9 173.5,-143.9 173.5,-143.9"/>
</g>
<!-- corallium.loggers -->
<g id="node4" class="node">
<title>corallium.loggers</title>
<polygon fill="none" stroke="black" points="571,-36 430,-36 430,0 571,0 571,-36"/>
<text text-anchor="middle" x="500.5" y="-14.3" font-family="Times,serif" font-size="14.00">corallium.loggers</text>
</g>
<!-- corallium.loggers.styles -->
<g id="node6" class="node">
<title>corallium.loggers.styles</title>
<polygon fill="none" stroke="black" points="267.5,-252 79.5,-252 79.5,-216 267.5,-216 267.5,-252"/>
<text text-anchor="middle" x="173.5" y="-230.3" font-family="Times,serif" font-size="14.00">corallium.loggers.styles</text>
</g>
<!-- corallium.loggers.rich_printer&#45;&gt;corallium.loggers.styles -->
<g id="edge4" class="edge">
<title>corallium.loggers.rich_printer&#45;&gt;corallium.loggers.styles</title>
<path fill="none" stroke="black" d="M173.5,-180.3C173.5,-188.02 173.5,-197.29 173.5,-205.89"/>
<polygon fill="black" stroke="black" points="173.5,-215.9 169,-205.9 173.5,-210.9 173.5,-205.9 173.5,-205.9 173.5,-205.9 173.5,-210.9 178,-205.9 173.5,-215.9 173.5,-215.9"/>
</g>
<!-- corallium.loggers.writer -->
<g id="node7" class="node">
<title>corallium.loggers.writer</title>
<polygon fill="none" stroke="black" points="779.5,-36 589.5,-36 589.5,0 779.5,0 779.5,-36"/>
<text text-anchor="middle" x="684.5" y="-14.3" font-family="Times,serif" font-size="14.00">corallium.loggers.writer</text>
</g>
<!-- corallium.pretty_process -->
<g id="node8" class="node">
<title>corallium.pretty_process</title>
<polygon fill="none" stroke="black" points="991.5,-36 797.5,-36 797.5,0 991.5,0 991.5,-36"/>
<text text-anchor="middle" x="894.5" y="-14.3" font-family="Times,serif" font-size="14.00">corallium.pretty_process</text>
</g>
<!-- corallium.scripts -->
<g id="node9" class="node">
<title>corallium.scripts</title>
<polygon fill="none" stroke="black" points="1147,-36 1010,-36 1010,0 1147,0 1147,-36"/>
<text text-anchor="middle" x="1078.5" y="-14.3" font-family="Times,serif" font-size="14.00">corallium.scripts</text>
</g>
<!-- corallium.shell -->
<g id="node10" class="node">
<title>corallium.shell</title>
<polygon fill="none" stroke="black" points="223.5,-36 101.5,-36 101.5,0 223.5,0 223.5,-36"/>
<text text-anchor="middle" x="162.5" y="-14.3" font-family="Times,serif" font-size="14.00">corallium.shell</text>
</g>
<!-- corallium.shell&#45;&gt;corallium.log -->
<g id="edge5" class="edge">
<title>corallium.shell&#45;&gt;corallium.log</title>
<path fill="none" stroke="black" d="M165.22,-36.3C166.43,-44.02 167.89,-53.29 169.24,-61.89"/>
<polygon fill="black" stroke="black" points="170.81,-71.9 164.81,-62.72 170.04,-66.96 169.26,-62.02 169.26,-62.02 169.26,-62.02 170.04,-66.96 173.71,-61.32 170.81,-71.9 170.81,-71.9"/>
</g>
</g>
</svg>
