<?xml version="1.0" encoding="UTF-8" standalone="no"?>
<!DOCTYPE svg PUBLIC "-//W3C//DTD SVG 1.1//EN"
 "http://www.w3.org/Graphics/SVG/1.1/DTD/svg11.dtd">
<!-- Generated by graphviz version 2.43.0 (0)
 -->
<!-- Title: packages Pages: 1 -->
<svg width="1168pt" height="260pt"
 viewBox="0.00 0.00 1167.50 260.00" xmlns="http://www.w3.org/2000/svg" xmlns:xlink="http://www.w3.org/1999/xlink">
<g id="graph0" class="graph" transform="scale(1 1) rotate(0) translate(4 256)">
<title>packages</title>
<polygon fill="white" stroke="transparent" points="-4,4 -4,-256 1163.5,-256 1163.5,4 -4,4"/>
<!-- corallium -->
<g id="node1" class="node">
<title>corallium</title>
<polygon fill="none" stroke="black" points="95.5,-36 12.5,-36 12.5,0 95.5,0 95.5,-36"/>
<text text-anchor="middle" x="54" y="-14.3" font-family="Times,serif" font-size="14.00">corallium</text>
</g>
<!-- corallium.file_helpers -->
<g id="node2" class="node">
<title>corallium.file_helpers</title>
<polygon fill="none" stroke="black" points="424,-36 254,-36 254,0 424,0 424,-36"/>
<text text-anchor="middle" x="339" y="-14.3" font-family="Times,serif" font-size="14.00">corallium.file_helpers</text>
</g>
<!-- corallium.log -->
<g id="node3" class="node">
<title>corallium.log</title>
<polygon fill="none" stroke="black" points="241,-108 131,-108 131,-72 241,-72 241,-108"/>
<text text-anchor="middle" x="186" y="-86.3" font-family="Times,serif" font-size="14.00">corallium.log</text>
</g>
<!-- corallium.file_helpers&#45;&gt;corallium.log -->
<g id="edge1" class="edge">
<title>corallium.file_helpers&#45;&gt;corallium.log</title>
<path fill="none" stroke="black" d="M301.57,-36.12C280.75,-45.65 254.65,-57.59 232.52,-67.72"/>
<polygon fill="black" stroke="black" points="223.31,-71.93 230.53,-63.68 227.85,-69.85 232.4,-67.77 232.4,-67.77 232.4,-67.77 227.85,-69.85 234.27,-71.86 223.31,-71.93 223.31,-71.93"/>
</g>
<!-- corallium.tomllib -->
<g id="node11" class="node">
<title>corallium.tomllib</title>
<polygon fill="none" stroke="black" points="408,-108 270,-108 270,-72 408,-72 408,-108"/>
<text text-anchor="middle" x="339" y="-86.3" font-family="Times,serif" font-size="14.00">corallium.tomllib</text>
</g>
<!-- corallium.file_helpers&#45;&gt;corallium.tomllib -->
<g id="edge2" class="edge">
<title>corallium.file_helpers&#45;&gt;corallium.tomllib</title>
<path fill="none" stroke="black" d="M339,-36.3C339,-44.02 339,-53.29 339,-61.89"/>
<polygon fill="black" stroke="black" points="339,-71.9 334.5,-61.9 339,-66.9 339,-61.9 339,-61.9 339,-61.9 339,-66.9 343.5,-61.9 339,-71.9 339,-71.9"/>
</g>
<!-- corallium.loggers.rich_printer -->
<g id="node5" class="node">
<title>corallium.loggers.rich_printer</title>
<polygon fill="none" stroke="black" points="230,-180 0,-180 0,-144 230,-144 230,-180"/>
<text text-anchor="middle" x="115" y="-158.3" font-family="Times,serif" font-size="14.00">corallium.loggers.rich_printer</text>
</g>
<!-- corallium.log&#45;&gt;corallium.loggers.rich_printer -->
<g id="edge3" class="edge">
<title>corallium.log&#45;&gt;corallium.loggers.rich_printer</title>
<path fill="none" stroke="black" d="M168.45,-108.3C159.77,-116.86 149.14,-127.34 139.65,-136.7"/>
<polygon fill="black" stroke="black" points="132.35,-143.9 136.31,-133.67 135.91,-140.39 139.47,-136.87 139.47,-136.87 139.47,-136.87 135.91,-140.39 142.63,-140.08 132.35,-143.9 132.35,-143.9"/>
</g>
<!-- corallium.loggers.styles -->
<g id="node6" class="node">
<title>corallium.loggers.styles</title>
<polygon fill="none" stroke="black" points="280,-252 92,-252 92,-216 280,-216 280,-252"/>
<text text-anchor="middle" x="186" y="-230.3" font-family="Times,serif" font-size="14.00">corallium.loggers.styles</text>
</g>
<!-- corallium.log&#45;&gt;corallium.loggers.styles -->
<g id="edge4" class="edge">
<title>corallium.log&#45;&gt;corallium.loggers.styles</title>
<path fill="none" stroke="black" d="M210.48,-108.23C221.4,-117.44 233.12,-129.81 239,-144 245.12,-158.78 245.12,-165.22 239,-180 234.46,-190.97 226.41,-200.86 217.95,-209.04"/>
<polygon fill="black" stroke="black" points="210.48,-215.77 214.89,-205.73 214.19,-212.42 217.91,-209.07 217.91,-209.07 217.91,-209.07 214.19,-212.42 220.92,-212.42 210.48,-215.77 210.48,-215.77"/>
</g>
<!-- corallium.loggers -->
<g id="node4" class="node">
<title>corallium.loggers</title>
<polygon fill="none" stroke="black" points="583.5,-36 442.5,-36 442.5,0 583.5,0 583.5,-36"/>
<text text-anchor="middle" x="513" y="-14.3" font-family="Times,serif" font-size="14.00">corallium.loggers</text>
</g>
<!-- corallium.loggers.rich_printer&#45;&gt;corallium.loggers.styles -->
<g id="edge5" class="edge">
<title>corallium.loggers.rich_printer&#45;&gt;corallium.loggers.styles</title>
<path fill="none" stroke="black" d="M132.55,-180.3C141.23,-188.86 151.86,-199.34 161.35,-208.7"/>
<polygon fill="black" stroke="black" points="168.65,-215.9 158.37,-212.08 165.09,-212.39 161.53,-208.87 161.53,-208.87 161.53,-208.87 165.09,-212.39 164.69,-205.67 168.65,-215.9 168.65,-215.9"/>
</g>
<!-- corallium.loggers.writer -->
<g id="node7" class="node">
<title>corallium.loggers.writer</title>
<polygon fill="none" stroke="black" points="792,-36 602,-36 602,0 792,0 792,-36"/>
<text text-anchor="middle" x="697" y="-14.3" font-family="Times,serif" font-size="14.00">corallium.loggers.writer</text>
</g>
<!-- corallium.pretty_process -->
<g id="node8" class="node">
<title>corallium.pretty_process</title>
<polygon fill="none" stroke="black" points="1004,-36 810,-36 810,0 1004,0 1004,-36"/>
<text text-anchor="middle" x="907" y="-14.3" font-family="Times,serif" font-size="14.00">corallium.pretty_process</text>
</g>
<!-- corallium.scripts -->
<g id="node9" class="node">
<title>corallium.scripts</title>
<polygon fill="none" stroke="black" points="1159.5,-36 1022.5,-36 1022.5,0 1159.5,0 1159.5,-36"/>
<text text-anchor="middle" x="1091" y="-14.3" font-family="Times,serif" font-size="14.00">corallium.scripts</text>
</g>
<!-- corallium.shell -->
<g id="node10" class="node">
<title>corallium.shell</title>
<polygon fill="none" stroke="black" points="236,-36 114,-36 114,0 236,0 236,-36"/>
<text text-anchor="middle" x="175" y="-14.3" font-family="Times,serif" font-size="14.00">corallium.shell</text>
</g>
<!-- corallium.shell&#45;&gt;corallium.log -->
<g id="edge6" class="edge">
<title>corallium.shell&#45;&gt;corallium.log</title>
<path fill="none" stroke="black" d="M177.72,-36.3C178.93,-44.02 180.39,-53.29 181.74,-61.89"/>
<polygon fill="black" stroke="black" points="183.31,-71.9 177.31,-62.72 182.54,-66.96 181.76,-62.02 181.76,-62.02 181.76,-62.02 182.54,-66.96 186.21,-61.32 183.31,-71.9 183.31,-71.9"/>
</g>
</g>
</svg>
